<?xml version="1.0" standalone="no"?>
<!DOCTYPE svg PUBLIC "-//W3C//DTD SVG 1.1//EN" "http://www.w3.org/Graphics/SVG/1.1/DTD/svg11.dtd" >
<svg xmlns="http://www.w3.org/2000/svg" xmlns:xlink="http://www.w3.org/1999/xlink" version="1.1">
<metadata>
Created by FontForge 20200427 at Fri Oct 10 00:59:23 2014
 By www
Copyright (c) 2013 by t Wiescher, Wiescher-Design, Munich, Germany,.wiescher-design.de. All rights reserved.
</metadata>
<defs>
<font id="SupraW01-Demibold" horiz-adv-x="571" >
  <font-face 
    font-family="SupraW01-Demibold"
    font-weight="600"
    font-stretch="normal"
    units-per-em="1000"
    panose-1="2 0 5 6 0 0 0 2 0 4"
    ascent="800"
    descent="-200"
    x-height="499"
    cap-height="665"
    bbox="-103 -278 1323 930"
    underline-thickness="50"
    underline-position="-175"
    unicode-range="U+000D-2122"
  />
<missing-glyph horiz-adv-x="832" 
 />
    <glyph glyph-name=".notdef" horiz-adv-x="832" 
 />
    <glyph glyph-name="glyph1" horiz-adv-x="0" 
 />
    <glyph glyph-name="glyph1" horiz-adv-x="0" 
 />
    <glyph glyph-name="uni000D" unicode="&#xd;" horiz-adv-x="255" 
 />
    <glyph glyph-name="space" unicode=" " horiz-adv-x="255" 
 />
    <glyph glyph-name="exclam" unicode="!" horiz-adv-x="294" 
d="M146 -10q-33 0 -56 24t-23 58q0 33 23 56.5t56 23.5t56.5 -23.5t23.5 -56.5q0 -34 -23.5 -58t-56.5 -24zM193 213h-94l-36 452h166z" />
    <glyph glyph-name="quotedbl" unicode="&#x22;" horiz-adv-x="374" 
d="M34 488v179h123v-178l-14 -172h-95zM211 488v179h123v-178l-14 -172h-95z" />
    <glyph glyph-name="numbersign" unicode="#" horiz-adv-x="812" 
d="M155 142h-108l37 119h108l44 137h-108l38 119h108l48 149h119l-49 -149h132l49 149h118l-49 -149h112l-38 -119h-111l-44 -137h112l-38 -119h-112l-45 -142h-119l46 142h-132l-45 -142h-120zM443 261l44 137h-133l-43 -137h132z" />
    <glyph glyph-name="dollar" unicode="$" horiz-adv-x="603" 
d="M263 -112v101q-66 2 -119 16.5t-92 34.5v144q51 -30 107 -48.5t110 -18.5t83 15.5t29 53.5q0 26 -20 42.5t-67 36.5l-64 25q-35 14 -65 31t-52 39.5t-34 52t-12 68.5q0 84 51.5 132.5t144.5 58.5v104h86v-103q55 -3 97 -13.5t71 -21.5v-139q-45 23 -91 35.5t-94 12.5
q-44 0 -71 -13t-27 -45t23 -48.5t65 -33.5l61 -25q41 -18 72.5 -36t52.5 -39.5t32 -48.5t11 -63q0 -86 -53 -138t-149 -65v-104h-86z" />
    <glyph glyph-name="percent" unicode="%" horiz-adv-x="952" 
d="M656 627h127l-486 -658h-127zM264 405q0 47 -14 79t-51 32q-36 0 -51.5 -32t-15.5 -79t15 -79.5t51 -32.5q37 0 51.5 32.5t14.5 79.5zM371 406q0 -41 -11 -76.5t-33 -61.5t-54.5 -40.5t-75.5 -14.5t-75 14.5t-53.5 40.5t-32.5 61.5t-11 76.5t12.5 76.5t35 61t54.5 40
t71 14.5q43 0 75.5 -14.5t54 -40t32.5 -61t11 -76.5zM820 185q0 47 -14 79t-51 32q-36 0 -51.5 -32t-15.5 -79t15 -79.5t51 -32.5q37 0 51.5 32.5t14.5 79.5zM927 186q0 -41 -11 -76.5t-33 -61.5t-54.5 -40.5t-75.5 -14.5t-75 14.5t-53.5 40.5t-32.5 61.5t-11 76.5
t12.5 76.5t35 61t54.5 40t71 14.5q43 0 75.5 -14.5t54 -40t32.5 -61t11 -76.5z" />
    <glyph glyph-name="ampersand" unicode="&#x26;" horiz-adv-x="782" 
d="M286 -11q-45 0 -88.5 12.5t-78 37t-56 61t-21.5 83.5q0 38 14 68.5t38 55t56.5 43t70.5 33.5q-13 15 -26 30.5t-23 32.5t-16.5 36.5t-6.5 42.5q0 37 17.5 65.5t47 47.5t66.5 28.5t76 9.5q42 0 78 -12t63 -33t42.5 -48t15.5 -57q0 -31 -11 -56.5t-30.5 -47.5t-45 -41
t-55.5 -35l82 -87q25 26 51 50t55.5 43t63.5 30t75 11v-136q-22 0 -43.5 -10t-41 -25.5t-37 -33t-31.5 -32.5l146 -156h-168l-65 69q-45 -40 -96 -60t-118 -20zM283 126q29 0 59 12t56 40l-110 119q-21 -8 -39.5 -18t-33 -23t-23 -28t-8.5 -32q0 -30 28.5 -50t70.5 -20z
M342 428q48 17 70.5 38t22.5 44q0 24 -20 38t-54 14q-33 0 -52 -14t-19 -38q0 -20 15.5 -41t36.5 -41z" />
    <glyph glyph-name="quotesingle" unicode="'" horiz-adv-x="198" 
d="M157 666v-178l-14 -172h-95l-14 171v179h123z" />
    <glyph glyph-name="parenleft" unicode="(" horiz-adv-x="333" 
d="M279 737q-58 -104 -88.5 -222t-30.5 -239q0 -116 31 -232t85 -216h-109q-66 98 -103 213t-37 238t36 242t105 216h111z" />
    <glyph glyph-name="parenright" unicode=")" horiz-adv-x="333" 
d="M165 737q69 -97 104.5 -215.5t35.5 -241.5t-36.5 -238.5t-102.5 -213.5h-110q54 100 85.5 216.5t31.5 232.5q0 121 -31 238.5t-89 221.5h112z" />
    <glyph glyph-name="asterisk" unicode="*" horiz-adv-x="377" 
d="M258 379q-16 0 -27 10.5t-19 26t-13.5 32.5t-10.5 29q-4 -11 -9.5 -27.5t-14 -32t-19.5 -27t-27 -11.5q-14 0 -26.5 11.5t-12.5 27.5q0 13 8 25t19.5 22.5t24.5 19.5t22 17q-14 0 -34.5 0.5t-39 4.5t-31.5 14t-13 28q0 16 12.5 27.5t28.5 11.5q23 0 46 -15.5t45 -28.5
q-7 23 -13 48.5t-6 37.5q0 17 11.5 29.5t28.5 12.5q18 0 29 -11t11 -28t-6.5 -44t-11.5 -45q10 6 21 13.5t23 14t24.5 11.5t24.5 5q17 0 28 -12t11 -29q0 -15 -10 -24t-24 -13q-15 -5 -37.5 -6t-46.5 -1q8 -7 20.5 -16.5t24 -20.5t20 -23.5t8.5 -25.5q0 -15 -11 -26.5
t-28 -11.5z" />
    <glyph glyph-name="plus" unicode="+" horiz-adv-x="463" 
d="M173 192h-138v120h138v135h117v-135h138v-120h-138v-139h-117v139z" />
    <glyph glyph-name="comma" unicode="," horiz-adv-x="260" 
d="M-11 -172q15 24 30.5 56.5t27.5 72t20 85.5t8 97l143 -8q-1 -52 -11.5 -102t-27.5 -93.5t-37.5 -79t-41.5 -59.5z" />
    <glyph glyph-name="hyphen" unicode="-" horiz-adv-x="362" 
d="M42 320h279v-121h-279v121z" />
    <glyph glyph-name="period" unicode="." horiz-adv-x="260" 
d="M129 -13q-35 0 -59 25t-24 60q0 36 24 60.5t59 24.5t60 -24.5t25 -60.5q0 -35 -25 -60t-60 -25z" />
    <glyph glyph-name="slash" unicode="/" horiz-adv-x="401" 
d="M-10 -98l280 799h128l-279 -799h-129z" />
    <glyph glyph-name="zero" unicode="0" 
d="M385 294q0 38 -5 71t-16.5 57t-30.5 37.5t-47 13.5t-47 -14t-31 -38t-17.5 -57t-5.5 -70t5 -69.5t17 -56.5t31 -38t47 -14t47 13.5t31 37.5t17 56.5t5 70.5zM533 296q0 -65 -17 -121t-49.5 -97t-79 -64.5t-105.5 -23.5t-104.5 23.5t-76.5 64.5t-47.5 97t-16.5 121t19 121
t52 97t78.5 64t98.5 23q60 0 106 -23t77.5 -64t48 -97t16.5 -121z" />
    <glyph glyph-name="one" unicode="1" 
d="M122 0v123h111v284q-7 -12 -25.5 -26t-38.5 -26q-24 -14 -51 -27v140q29 17 56 37q23 17 49 40t46 49h113v-471h104v-123h-364z" />
    <glyph glyph-name="two" unicode="2" 
d="M35 0v62q24 21 52.5 47.5t57.5 55t56.5 56t50.5 51t38.5 39.5t20.5 22q15 17 24.5 35t9.5 38q0 19 -8.5 32t-22 21t-30.5 11.5t-34 3.5q-23 0 -47 -6.5t-47.5 -16.5t-45.5 -22.5t-41 -24.5v133q14 8 35 19t48.5 20.5t61.5 16.5t73 7q46 0 87 -10.5t71.5 -33t48.5 -58
t18 -85.5t-24.5 -90.5t-57.5 -72.5q-9 -9 -19.5 -19t-26.5 -24t-40.5 -35t-61.5 -53q13 1 44 2q26 1 73.5 1.5t126.5 0.5v-123h-491z" />
    <glyph glyph-name="three" unicode="3" 
d="M275 -10q-45 0 -82 6t-65.5 14t-48 16t-29.5 13v133q11 -6 32 -15.5t47 -18t54 -15t54 -6.5q12 0 27.5 3t30 11.5t24 23.5t9.5 38q0 40 -36.5 54.5t-94.5 14.5v79q66 0 96 17.5t30 46.5q0 22 -10 35.5t-24 21t-29 10t-26 2.5q-25 0 -51 -7t-49 -16t-40.5 -18t-26.5 -14
v132q8 4 25 12t42.5 16.5t59.5 14.5t77 6q33 0 71 -7t70.5 -24.5t54.5 -47t22 -73.5q0 -53 -31.5 -87.5t-77.5 -43.5l4 -2q27 -6 49 -19t38 -31.5t24.5 -42t8.5 -49.5q0 -55 -26.5 -90.5t-63.5 -56t-76 -28.5t-63 -8z" />
    <glyph glyph-name="four" unicode="4" 
d="M332 0v100h-306v103l275 390h176q-57 -76 -98 -132t-73 -100t-58 -79.5t-53 -69.5q10 0 28 1q16 1 43.5 1.5t71.5 0.5v78l143 185v-263h65v-115h-65v-100h-149z" />
    <glyph glyph-name="five" unicode="5" 
d="M284 -10q-44 0 -80.5 6t-64.5 14t-47 16t-28 13v134q10 -6 30.5 -15.5t46 -18.5t54 -15.5t54.5 -6.5q9 0 28 2.5t38 12.5t33.5 28.5t14.5 50.5q0 33 -20.5 56.5t-69.5 23.5q-23 0 -45.5 -4.5t-43 -11.5t-37.5 -14.5t-27 -13.5l-48 40l23 306h404l-60 -123h-220
q-1 -28 -3 -52q-2 -20 -3 -38t-2 -23q12 7 39.5 16t70.5 9q54 0 93 -15t64.5 -40.5t37.5 -58.5t12 -69q0 -52 -20 -91t-53.5 -65.5t-78 -39.5t-92.5 -13z" />
    <glyph glyph-name="six" unicode="6" 
d="M305 -10q-81 0 -138 30.5t-91 86.5q-23 38 -32 83.5t-9 99.5q0 48 14.5 102.5t47.5 100.5t85.5 76.5t127.5 30.5q69 0 110.5 -9.5t69.5 -19.5v-129q-34 15 -72 24.5t-79 9.5q-39 0 -65 -11t-42.5 -27.5t-25.5 -36.5t-13 -38q-4 -12 -4.5 -24t-0.5 -23q10 15 27 26.5
t36.5 19.5t41.5 12t43 4q39 0 76.5 -10t67 -32t47.5 -56.5t18 -83.5q0 -52 -20.5 -90.5t-54 -64t-77 -38.5t-88.5 -13zM289 118q48 0 74.5 24.5t26.5 60.5q0 34 -24 58.5t-73 24.5q-24 0 -42.5 -8t-31.5 -20t-19.5 -26.5t-6.5 -28.5q0 -20 8 -35.5t21.5 -26.5t31 -17
t35.5 -6z" />
    <glyph glyph-name="seven" unicode="7" 
d="M164 0q0 51 12.5 113.5t37 127t60.5 126t83 110.5q-19 -2 -59 -3q-34 -2 -93.5 -2.5t-154.5 -0.5v122h466v-57q-39 -46 -75 -104t-64 -126t-45 -145t-17 -161h-151z" />
    <glyph glyph-name="eight" unicode="8" 
d="M287 -9q-57 0 -103 14t-78.5 37.5t-49.5 54.5t-17 66q0 48 34.5 89.5t97.5 58.5q-55 17 -85.5 53t-30.5 78q0 33 15.5 62t45.5 51t72.5 34.5t96.5 12.5q53 0 96 -12.5t73 -33.5t46.5 -49.5t16.5 -60.5q0 -43 -29 -80t-84 -55q64 -17 97 -57t33 -88q0 -36 -17 -68t-49 -56
t-78 -37.5t-103 -13.5zM287 116q48 0 75 22.5t27 57.5q0 33 -30.5 53t-72.5 20q-21 0 -40 -5.5t-33 -15.5t-22 -24t-8 -30q0 -33 28 -55.5t76 -22.5zM287 350q43 0 67.5 20.5t24.5 52.5q0 30 -26.5 49t-66.5 19q-41 0 -66.5 -20t-25.5 -50t25 -50.5t68 -20.5z" />
    <glyph glyph-name="nine" unicode="9" 
d="M268 -10q-44 0 -76.5 3.5t-57 9.5t-43 13t-33.5 14v132q36 -21 81.5 -35t97.5 -14q59 0 91 23t47 57q9 20 11.5 40.5t0.5 39.5q-21 -30 -63 -46t-85 -16q-39 0 -76 10t-66.5 31.5t-47.5 56t-18 83.5q0 52 20.5 91t54 65t76.5 39t87 13q81 0 138 -30.5t92 -86.5
q23 -37 32.5 -83.5t9.5 -100.5q0 -49 -14.5 -103.5t-47 -100t-84.5 -75.5t-127 -30zM282 301q25 0 43.5 8t31.5 20.5t19.5 27.5t6.5 29q0 34 -25 60.5t-73 26.5t-73.5 -26t-25.5 -61q0 -16 5.5 -31.5t17.5 -27.5t30 -19t43 -7z" />
    <glyph glyph-name="colon" unicode=":" horiz-adv-x="280" 
d="M149 -17q-35 0 -59 25t-24 60q0 36 24 61t59 25t60 -25t25 -61q0 -35 -25 -60t-60 -25zM149 333q-35 0 -59 25.5t-24 60.5t24 60t59 25t60 -25t25 -60q0 -18 -6.5 -33.5t-18 -27t-27 -18.5t-33.5 -7z" />
    <glyph glyph-name="semicolon" unicode=";" horiz-adv-x="280" 
d="M9 -172q15 24 30.5 56.5t27.5 72t20 85.5t8 97l143 -8q-1 -52 -11.5 -102t-27.5 -93.5t-37.5 -79t-41.5 -59.5zM162 333q-35 0 -59.5 25.5t-24.5 60.5t24.5 60t59.5 25q17 0 32.5 -6.5t27 -18t18 -27t6.5 -33.5t-6.5 -33.5t-18 -27t-27 -18.5t-32.5 -7z" />
    <glyph glyph-name="less" unicode="&#x3c;" horiz-adv-x="481" 
d="M436 7l-392 205v97l392 205v-162l-189 -92l189 -91v-162z" />
    <glyph glyph-name="equal" unicode="=" horiz-adv-x="500" 
d="M40 451h420v-120h-420v120zM40 233h420v-119h-420v119z" />
    <glyph glyph-name="greater" unicode="&#x3e;" horiz-adv-x="481" 
d="M44 169l189 91l-189 92v162l392 -205v-97l-392 -205v162z" />
    <glyph glyph-name="question" unicode="?" horiz-adv-x="421" 
d="M180 -10q-33 0 -56 24t-23 58q0 33 23 56.5t56 23.5t56.5 -23.5t23.5 -56.5q0 -34 -23.5 -58t-56.5 -24zM129 214q-10 20 -17.5 45t-7.5 42q0 28 11.5 49.5t32.5 44.5q10 10 22.5 23t24 27.5t19.5 30t8 30.5q0 26 -14 36.5t-43 10.5q-18 0 -38 -6t-37 -13q-20 -8 -40 -18
v128q19 9 43 16q20 6 46 11.5t55 5.5q37 0 72.5 -7.5t63.5 -24t45.5 -44t17.5 -66.5q0 -23 -9 -44t-22.5 -39.5t-29 -34.5t-29.5 -29q-18 -17 -33.5 -29.5t-27 -25.5t-18.5 -27.5t-7 -34.5q0 -10 2.5 -28.5t4.5 -28.5h-95z" />
    <glyph glyph-name="at" unicode="@" horiz-adv-x="1056" 
d="M449 -10q-42 0 -73 12.5t-51.5 33.5t-30.5 47.5t-10 54.5q0 44 21 73t57 48q39 20 97 30t134 12q0 27 -2 41.5t-7 24.5q-8 16 -27 22t-48 6q-16 0 -37.5 -3t-45.5 -9t-49 -15t-48 -20v114q22 11 49.5 20t55.5 15t55 9.5t49 3.5q43 0 75 -6.5t54 -18t36 -27.5t22 -35
q12 -26 15 -62t3 -68v-146q0 -16 6.5 -29t25.5 -13q27 0 47 18t33 44.5t19.5 57.5t6.5 57q0 63 -24 119.5t-68 99.5t-107 68t-141 25q-77 0 -144 -25.5t-116.5 -71.5t-78 -109t-28.5 -138t26.5 -138t76.5 -112h-139q-41 52 -63 114.5t-22 134.5q0 96 38.5 177.5t105 140
t155.5 91.5t189 33q103 0 187.5 -33.5t143.5 -89.5t91.5 -130.5t32.5 -156.5q0 -61 -19.5 -114t-55 -92.5t-84.5 -62t-109 -22.5q-17 0 -36 4t-36 12.5t-29.5 22t-16.5 32.5q-21 -27 -61.5 -49t-99.5 -22zM491 89q32 0 55.5 13.5t35.5 29.5q12 19 12 50v36q-45 -1 -80 -7
t-58 -17q-17 -9 -25.5 -19.5t-8.5 -27.5q0 -32 20.5 -45t48.5 -13z" />
    <glyph glyph-name="A" unicode="A" horiz-adv-x="698" 
d="M523 0l-52 140h-246l-53 -140h-169l263 665h169l260 -665h-172zM429 272q-42 114 -61 168.5t-21 61.5q-2 -5 -20.5 -59.5t-60.5 -170.5h163z" />
    <glyph glyph-name="B" unicode="B" horiz-adv-x="652" 
d="M72 0v665q17 0 46.5 0.5t64 1t70.5 1t66 0.5t61 -1.5t59.5 -7t53.5 -15t43 -24.5q27 -23 39.5 -54.5t12.5 -63.5q0 -25 -9 -49.5t-26 -45.5t-42.5 -37t-58.5 -23q34 -3 64 -14t52.5 -30.5t36 -48t13.5 -67.5q0 -57 -30 -96.5t-75 -59.5q-42 -20 -93 -25.5t-97 -5.5h-251z
M324 126q27 0 50.5 3.5t40.5 11.5q19 9 30.5 22t11.5 39q0 29 -16 47t-44 26q-14 4 -34.5 6t-41.5 2h-93v-157h96zM325 390q21 0 41.5 3.5t32.5 10.5q17 11 27 26.5t10 38.5q0 74 -115 74q-8 0 -23 -0.5t-30 -0.5t-26.5 -0.5t-13.5 -0.5v-151h97z" />
    <glyph glyph-name="C" unicode="C" horiz-adv-x="654" 
d="M626 37q-39 -20 -104 -35t-141 -15q-81 0 -145.5 25t-109 70.5t-68 109.5t-23.5 141q0 82 28 146t76.5 108t114 67t139.5 23q39 0 73.5 -4t63 -10t51 -13t37.5 -13v-142q-13 6 -34.5 14t-48.5 15t-59.5 11.5t-66.5 4.5q-41 0 -79.5 -11t-68.5 -36t-48 -65t-18 -98
q0 -53 16.5 -91.5t45 -64t67.5 -37.5t84 -12q34 0 67.5 5.5t62.5 13t52 16t36 14.5v-137v0z" />
    <glyph glyph-name="D" unicode="D" horiz-adv-x="733" 
d="M72 665q41 0 83 1q36 1 78.5 1.5t82.5 0.5q119 0 189 -26q43 -15 79 -41t61.5 -63.5t39.5 -87t14 -110.5q0 -56 -13.5 -104t-38 -87.5t-58.5 -69t-76 -47.5q-31 -13 -85 -22.5t-139 -9.5h-217v665zM316 138q16 0 34.5 1t36.5 4t34 7.5t27 11.5q42 22 66.5 66t24.5 113
q0 52 -15.5 88.5t-43 59t-65 32.5t-81.5 10q-11 0 -25.5 -0.5t-29.5 -1t-28.5 -1t-21.5 -0.5v-390h87z" />
    <glyph glyph-name="E" unicode="E" horiz-adv-x="579" 
d="M531 0h-459v665h438v-134h-284v-129h258v-131h-258v-137h305v-134z" />
    <glyph glyph-name="F" unicode="F" horiz-adv-x="534" 
d="M72 0v665h439v-134h-285v-149h242v-129h-242v-253h-154z" />
    <glyph glyph-name="G" unicode="G" horiz-adv-x="708" 
d="M654 44q-17 -8 -44.5 -18t-62 -18.5t-74.5 -14.5t-82 -6q-88 0 -154.5 25.5t-111.5 71t-68 109t-23 140.5q0 81 27.5 144.5t76 108t115 68t143.5 23.5q39 0 75 -4t66.5 -10t54.5 -13t40 -13v-137q-32 11 -89.5 25.5t-137.5 14.5q-44 0 -82 -12t-66.5 -37.5t-45 -65.5
t-16.5 -95q0 -56 16.5 -95t44.5 -64t65 -36.5t79 -11.5q25 0 54 5t52 12v97h-126v131h274v-324v0z" />
    <glyph glyph-name="H" unicode="H" horiz-adv-x="736" 
d="M506 0v269h-277v-269h-157v665h157v-258h277v258h157v-665h-157z" />
    <glyph glyph-name="I" unicode="I" horiz-adv-x="299" 
d="M71 0v665h157v-665h-157z" />
    <glyph glyph-name="J" unicode="J" horiz-adv-x="451" 
d="M27 141q21 -5 45.5 -9.5t53.5 -4.5q64 0 83 37q8 14 11 35t3 47v276h-175v143h332v-440q0 -79 -20 -130q-42 -106 -190 -106q-44 0 -80.5 4t-62.5 11v137z" />
    <glyph glyph-name="K" unicode="K" horiz-adv-x="660" 
d="M463 0l-235 302v-302h-157v665h157v-284l233 284h178l-264 -309l285 -356h-197z" />
    <glyph glyph-name="L" unicode="L" horiz-adv-x="513" 
d="M71 0v665h157v-527h269v-138h-426z" />
    <glyph glyph-name="M" unicode="M" horiz-adv-x="819" 
d="M591 0v418l-7 -11.5t-24 -39t-48 -74.5t-79 -118h-44q-48 70 -79 115.5t-49 73t-25 39.5t-8 14v-417h-157v665h145l194 -287l193 287h145v-665h-157z" />
    <glyph glyph-name="N" unicode="N" horiz-adv-x="734" 
d="M538 0q-100 124 -162.5 202t-96.5 122q-40 52 -59 77v-401h-155v665h135q99 -124 160.5 -202t95.5 -121q40 -52 57 -76v399h154v-665h-129z" />
    <glyph glyph-name="O" unicode="O" horiz-adv-x="766" 
d="M377 -13q-80 0 -143.5 26.5t-107.5 73t-68 109.5t-24 136q0 78 27 142t74.5 109t112.5 69.5t141 24.5q75 0 138 -24t108.5 -68t71.5 -106t26 -139t-25.5 -141.5t-72 -111.5t-112.5 -73.5t-146 -26.5zM385 125q41 0 75.5 14t59 40t38.5 64.5t14 88.5q0 51 -14 90t-39 65.5
t-58.5 39.5t-73.5 13q-42 0 -77.5 -13.5t-61 -40t-39.5 -65.5t-14 -89q0 -49 14 -87.5t39 -65t60 -40.5t77 -14z" />
    <glyph glyph-name="P" unicode="P" horiz-adv-x="619" 
d="M71 0v665q66 1 121 2q24 0 47.5 0.5t43.5 1t35.5 0.5h22.5q54 0 99.5 -10t75.5 -31q37 -25 58 -65.5t21 -102.5q0 -54 -21 -101t-63 -76q-28 -20 -72.5 -32t-92.5 -12h-118v-239h-157zM316 360q24 0 47.5 4.5t37.5 15.5q17 12 25 33.5t8 41.5q0 49 -32.5 68t-79.5 19
q-15 0 -31.5 -0.5t-30.5 -1.5q-17 -1 -32 -1v-179h88z" />
    <glyph glyph-name="Q" unicode="Q" horiz-adv-x="767" 
d="M377 -13q-80 0 -143.5 26.5t-107.5 73t-68 109.5t-24 136q0 78 27 142t74.5 109t112.5 69.5t141 24.5q75 0 138 -24t108.5 -68t71.5 -106t26 -139t-25.5 -141.5t-72 -111.5t-112.5 -73.5t-146 -26.5zM385 125q41 0 75.5 14t59 40t38.5 64.5t14 88.5q0 51 -14 90t-39 65.5
t-58.5 39.5t-73.5 13q-42 0 -77.5 -13.5t-61 -40t-39.5 -65.5t-14 -89q0 -49 14 -87.5t39 -65t60 -40.5t77 -14zM377 -14l252 -54l-26 -118l-251 54z" />
    <glyph glyph-name="R" unicode="R" horiz-adv-x="673" 
d="M497 0l-90 160q-12 20 -23.5 37t-25.5 28q-28 22 -77 22h-52v-247h-157v666q60 1 110 2q21 0 42.5 0.5t40 1t33 0.5h21.5q54 0 103 -7t81 -24q45 -24 69 -68t24 -99q0 -49 -22.5 -86.5t-56.5 -60.5q-11 -8 -26 -14.5t-34 -10.5q19 -5 33 -15t23 -20q11 -13 24.5 -32.5
t22.5 -36.5l110 -196h-173zM324 371q21 0 41 4t33 13q37 25 37 69q0 24 -11.5 42.5t-30.5 27.5q-14 8 -36 10.5t-41 2.5q-17 0 -32.5 -0.5t-27.5 -1.5q-14 -1 -27 -1v-166h95z" />
    <glyph glyph-name="S" unicode="S" horiz-adv-x="566" 
d="M39 186q51 -30 107 -48.5t109 -18.5q54 0 83.5 14t29.5 52q0 26 -20.5 42t-67.5 36l-64 26q-35 14 -65 31t-52 39.5t-34 52t-12 68.5q0 95 65 145t178 50q70 0 123.5 -12t88.5 -26v-140q-45 22 -93.5 35t-96.5 13q-44 0 -70.5 -12.5t-26.5 -44.5t22.5 -48.5t64.5 -33.5
l61 -26q42 -18 73.5 -35.5t52.5 -39t31.5 -48.5t10.5 -63q0 -99 -68.5 -152.5t-196.5 -53.5q-72 0 -131.5 15.5t-101.5 36.5v146z" />
    <glyph glyph-name="T" unicode="T" horiz-adv-x="593" 
d="M218 0v527h-196v138h548v-138h-196v-527h-156z" />
    <glyph glyph-name="U" unicode="U" horiz-adv-x="737" 
d="M677 311q0 -24 -1 -50t-6 -49q-22 -111 -100.5 -168t-200.5 -57q-125 0 -203 57.5t-90 163.5q-2 20 -3.5 46t-1.5 48v363h157v-360q0 -19 1 -37.5t3 -34.5q9 -55 46 -81.5t97 -26.5q57 0 93.5 26t46.5 79q4 17 4.5 36.5t0.5 38.5v360h157v-354z" />
    <glyph glyph-name="V" unicode="V" horiz-adv-x="695" 
d="M262 0l-256 665h172q32 -89 55.5 -155.5t41 -115.5t29.5 -83t21 -58t15 -41.5t11 -33.5q5 16 11 33t14 41t20 58t29 83t40.5 115.5t55.5 156.5h168l-260 -665h-167z" />
    <glyph glyph-name="W" unicode="W" horiz-adv-x="978" 
d="M208 0l-198 665h172q32 -115 52.5 -189t33 -123.5t21 -82t16.5 -65.5q8 32 16.5 65.5t21.5 83.5t33 124t51 187h129q31 -111 51.5 -184.5t34 -124t22 -84.5t16.5 -67q9 33 17 67t21 84t32.5 123t50.5 186h167l-203 -665h-158q-29 96 -48.5 163t-33 115t-22.5 80.5
t-16 58.5q-7 -25 -15.5 -57.5t-21.5 -80.5t-32.5 -116t-47.5 -163h-162z" />
    <glyph glyph-name="X" unicode="X" horiz-adv-x="730" 
d="M14 0l244 348l-226 317h187q37 -53 63 -90.5t43.5 -63.5t28.5 -41.5t17 -23.5q4 6 14.5 20.5t28 40.5t44 65t63.5 93h175l-230 -317l250 -348h-187q-78 110 -118 167.5t-55 76.5q-7 -9 -19 -27.5t-31.5 -48t-47 -71t-64.5 -97.5h-180z" />
    <glyph glyph-name="Y" unicode="Y" horiz-adv-x="682" 
d="M260 0v247l-260 418h179q42 -71 69.5 -117t45.5 -76t28.5 -48t18.5 -33l164 274h176l-265 -418v-247h-156z" />
    <glyph glyph-name="Z" unicode="Z" horiz-adv-x="627" 
d="M27 0v101q68 82 119 142.5t87.5 104t62 73.5t43 50.5t29 34.5t22.5 27q-36 -1 -87 -1q-44 -1 -108 -1h-149v134h549v-112q-65 -78 -114 -136.5t-84.5 -101.5t-60.5 -72t-42.5 -49.5t-29.5 -34.5t-22 -25q36 0 88 1q45 0 112.5 0.5t161.5 0.5v-136h-577z" />
    <glyph glyph-name="bracketleft" unicode="[" horiz-adv-x="272" 
d="M245 -172h-218v909h218v-58h-101v-793h101v-58z" />
    <glyph glyph-name="backslash" unicode="\" horiz-adv-x="401" 
d="M239 0l-232 665h128l233 -665h-129z" />
    <glyph glyph-name="bracketright" unicode="]" horiz-adv-x="272" 
d="M27 -114h101v793h-101v58h218v-909h-218v58z" />
    <glyph glyph-name="asciicircum" unicode="^" horiz-adv-x="579" 
d="M63 322l227 351l226 -350l-100 -63l-126 194l-127 -195z" />
    <glyph glyph-name="underscore" unicode="_" horiz-adv-x="382" 
d="M-11 -62h402v-120h-402v120z" />
    <glyph glyph-name="grave" unicode="`" horiz-adv-x="358" 
d="M230 556q-20 11 -44.5 30t-49.5 43.5t-48.5 54.5t-40.5 62l107 54q15 -30 34.5 -59.5t40 -55t40.5 -46.5t38 -34z" />
    <glyph glyph-name="a" unicode="a" horiz-adv-x="568" 
d="M558 10q-23 -11 -52.5 -15.5t-50.5 -4.5q-15 0 -30.5 4t-28.5 12t-22.5 21.5t-13.5 33.5q-22 -27 -60 -49t-101 -22q-41 0 -72 12t-51.5 31.5t-31 45.5t-10.5 55q0 87 75 125q39 20 99.5 29.5t135.5 11.5v13q0 14 -2 27t-7 24q-8 16 -28 21.5t-49 5.5q-16 0 -37.5 -3
t-45.5 -9t-48.5 -15t-47.5 -20v120q22 11 49.5 19.5t55.5 14.5t55 9.5t48 3.5q87 0 129.5 -24t58.5 -63q12 -26 15 -61.5t3 -68.5v-149q0 -8 1.5 -16t3.5 -12q6 -10 21 -10q8 0 19 1.5t20 5.5v-104zM241 96q35 0 57.5 13.5t34.5 29.5q6 9 8.5 23.5t2.5 28.5v23
q-45 -1 -80 -4.5t-58 -14.5q-33 -16 -33 -50q0 -29 20 -39t48 -10z" />
    <glyph glyph-name="b" unicode="b" horiz-adv-x="615" 
d="M67 737h148v-313q24 38 69 61.5t94 23.5q103 0 153.5 -63t50.5 -178q0 -83 -26.5 -136.5t-69 -85t-96 -44t-106.5 -12.5q-47 0 -103.5 8.5t-113.5 25.5v713zM219 125q14 -6 33 -10.5t46 -4.5t50.5 7.5t41.5 24t28 44t10 67.5q0 65 -25.5 99.5t-79.5 34.5q-24 0 -46 -12
t-38 -32q-10 -13 -15 -33.5t-5 -44.5v-140z" />
    <glyph glyph-name="c" unicode="c" horiz-adv-x="498" 
d="M458 28q-38 -21 -76.5 -30t-84.5 -9q-67 0 -116 19t-81.5 53.5t-48.5 82.5t-16 105q0 65 21 114t58 82t87 50t108 17q42 0 74.5 -6.5t67.5 -20.5v-125q-30 14 -58.5 22.5t-66.5 8.5q-36 0 -61.5 -11t-42.5 -30.5t-25 -45t-8 -54.5q0 -66 34 -103.5t100 -37.5q31 0 67 10
t68 30v-121v0z" />
    <glyph glyph-name="d" unicode="d" horiz-adv-x="618" 
d="M405 0v73q-23 -38 -67 -61t-98 -23q-55 0 -94 19.5t-63.5 53.5t-36 78.5t-11.5 95.5q0 55 14.5 104.5t46.5 86.5t83 59t124 22q27 0 51 -4t45 -9v242h152v-737h-146zM399 372q-17 9 -37 12.5t-43 3.5q-62 0 -96 -33.5t-34 -105.5q0 -62 25 -101t82 -39q23 0 45.5 11.5
t35.5 28.5q9 12 15.5 29.5t6.5 40.5v153z" />
    <glyph glyph-name="e" unicode="e" horiz-adv-x="578" 
d="M523 40q-46 -22 -97.5 -36.5t-119.5 -14.5q-65 0 -115 18t-85 51.5t-53 82t-18 108.5q0 52 16.5 99t50.5 83t85 57.5t119 21.5q117 0 178.5 -63t61.5 -188v-23t-1 -22h-357q2 -47 38.5 -76.5t99.5 -29.5q35 0 62.5 4t50 11t43 16.5t41.5 20.5v-120zM406 303
q0 42 -27 68.5t-75 26.5q-47 0 -77.5 -25t-35.5 -70h215z" />
    <glyph glyph-name="f" unicode="f" horiz-adv-x="362" 
d="M88 0v378h-81v121h81v48q0 39 5 69t20 54q43 73 163 73q41 0 77 -6t61 -16v-122q-23 10 -49 16.5t-48 6.5q-30 0 -47 -7.5t-24 -21.5q-6 -12 -8 -28.5t-2 -34.5v-31h127v-121h-127v-378h-148z" />
    <glyph glyph-name="g" unicode="g" horiz-adv-x="574" 
d="M268 -256q-56 0 -102 10t-78 28.5t-49.5 45t-17.5 58.5q0 42 32 75t94 49q-41 6 -57.5 27.5t-16.5 46.5q0 29 21.5 47t54.5 29q-57 23 -79 63.5t-22 91.5q0 42 18 76t50 58t76 37t96 13h280v-109h-24.5t-26 0.5t-22 0.5h-11.5q15 -11 21.5 -32t6.5 -44q0 -41 -19 -74
t-49.5 -56t-69.5 -35t-79 -12q-6 0 -16.5 0.5t-15.5 0.5q-19 -5 -29 -12.5t-10 -19.5q0 -15 15.5 -22t49.5 -9q51 -3 103 -9.5t91 -20.5q80 -29 80 -118q0 -42 -21 -76t-59.5 -58t-93 -37t-121.5 -13zM284 -155q54 0 85 18t31 50q0 12 -5 20t-14 15q-14 12 -43.5 16t-60.5 4
q-14 0 -25 -1t-22 -4q-26 -8 -42.5 -21t-16.5 -37q0 -30 29.5 -45t83.5 -15zM279 230q42 0 64 23.5t22 64.5t-22.5 62t-63.5 21q-42 0 -64 -25t-22 -60q0 -41 22.5 -63.5t63.5 -22.5z" />
    <glyph glyph-name="h" unicode="h" horiz-adv-x="627" 
d="M412 0v279q0 23 -3.5 44.5t-12.5 35.5q-11 17 -28.5 23.5t-40.5 6.5t-46.5 -12t-40.5 -33q-21 -27 -21 -72v-272h-152v737h150v-315q25 39 72 63t97 24q62 0 97.5 -19t54.5 -51q16 -26 20 -60t4 -60v-319h-150z" />
    <glyph glyph-name="i" unicode="i" horiz-adv-x="280" 
d="M67 499h148v-499h-148v499zM141 573q-34 0 -57 23.5t-23 57.5t23 58t57 24q33 0 56 -24t23 -58t-23 -57.5t-56 -23.5z" />
    <glyph glyph-name="j" unicode="j" horiz-adv-x="282" 
d="M-68 -127q15 -5 30.5 -7.5t30.5 -2.5q28 0 44 12t22 30q8 26 8 60v534h148v-552q0 -38 -5 -66.5t-19 -53.5q-21 -40 -59.5 -62t-95.5 -22q-31 0 -58 2t-46 10v118zM141 573q-35 0 -57.5 23t-22.5 58t23 58.5t58 23.5t56.5 -23.5t21.5 -58.5t-22.5 -58t-56.5 -23z" />
    <glyph glyph-name="k" unicode="k" horiz-adv-x="600" 
d="M400 0l-181 210v-210h-152v737h150v-423l175 185h179l-221 -221l243 -278h-193z" />
    <glyph glyph-name="l" unicode="l" horiz-adv-x="312" 
d="M306 3q-17 -6 -38 -10t-47 -4q-57 0 -91 18t-51 59q-8 22 -11 52t-3 69v550h148v-549q0 -18 1 -32t3 -22q5 -11 14.5 -16t30.5 -5q8 0 20 2t24 7v-119v0z" />
    <glyph glyph-name="m" unicode="m" horiz-adv-x="956" 
d="M67 0v499h149v-77q25 38 71.5 62.5t95.5 24.5q57 0 100 -22t61 -76q32 49 80 73.5t96 24.5q63 0 97 -19t52 -51q16 -26 20.5 -60t4.5 -60v-319h-151v278q0 23 -3.5 44.5t-11.5 35.5q-10 17 -27 23.5t-40 6.5t-45 -11t-39 -32q-21 -26 -21 -73v-272h-150v278
q0 23 -3.5 44.5t-11.5 35.5q-11 17 -28 23.5t-40 6.5q-22 0 -44.5 -10.5t-38.5 -32.5q-11 -13 -16 -31t-5 -41v-273h-152z" />
    <glyph glyph-name="n" unicode="n" horiz-adv-x="625" 
d="M67 0v499h149v-77q12 19 31 35t42 27.5t49 18t52 6.5q57 0 93 -19t55 -51q15 -26 19.5 -60t4.5 -60v-319h-150v281q0 23 -3.5 43t-12.5 34q-11 16 -28.5 23t-40.5 7t-47.5 -10.5t-40.5 -32.5q-11 -13 -15.5 -31t-4.5 -41v-273h-152z" />
    <glyph glyph-name="o" unicode="o" horiz-adv-x="614" 
d="M580 251q0 -57 -19 -105t-55 -83t-86.5 -54.5t-113.5 -19.5t-113 18t-85.5 52t-54.5 82t-19 107q0 56 18.5 104t54 83.5t86 56t114.5 20.5q65 0 116 -19.5t86 -54t53 -82.5t18 -105zM427 250q0 28 -6.5 54t-21 45.5t-37 31t-54.5 11.5t-54.5 -11.5t-37.5 -31t-22 -45.5
t-7 -55q0 -63 30.5 -101.5t90.5 -38.5q30 0 52.5 11t37.5 30.5t22 45t7 54.5z" />
    <glyph glyph-name="p" unicode="p" horiz-adv-x="617" 
d="M67 -230v730h146v-74q27 40 72.5 61.5t92.5 21.5q97 0 150.5 -60t53.5 -177q0 -77 -23.5 -130.5t-61.5 -87t-86 -48.5t-98 -15q-23 0 -44.5 3t-50.5 8v-232h-151zM219 125q14 -7 32.5 -11.5t45.5 -4.5t50.5 7.5t41.5 24.5t28.5 44.5t10.5 67.5q0 134 -106 134
q-23 0 -45.5 -10.5t-36.5 -29.5q-10 -11 -15.5 -30t-5.5 -39v-153z" />
    <glyph glyph-name="q" unicode="q" horiz-adv-x="618" 
d="M399 73q-24 -42 -65 -62t-90 -20q-104 0 -156.5 65t-52.5 173q0 61 16 112t49.5 88t84.5 58t121 21q73 0 132 -8t113 -22v-708h-152v303zM399 372q-14 7 -34 11.5t-46 4.5q-27 0 -50.5 -7t-41 -23.5t-28 -45t-10.5 -70.5q0 -66 28.5 -99.5t81.5 -33.5q23 0 44.5 12.5
t35.5 31.5q8 11 14 29.5t6 39.5v150z" />
    <glyph glyph-name="r" unicode="r" horiz-adv-x="471" 
d="M67 0v500h149v-86q18 40 57.5 67t93.5 27q35 0 62 -9t47 -23l-72 -124q-20 16 -42 23t-42 7t-36 -8t-28.5 -20t-20.5 -27.5t-11 -30.5q-4 -23 -4.5 -47.5t-0.5 -42.5v-206h-152z" />
    <glyph glyph-name="s" unicode="s" horiz-adv-x="481" 
d="M40 154q46 -25 92 -37.5t88 -12.5q38 0 53.5 11t15.5 33q0 17 -12.5 25t-41.5 18l-60 22q-55 19 -90 53t-35 93q0 73 52 112.5t160 39.5q37 0 81.5 -8t77.5 -20v-122q-81 35 -152 35q-62 0 -62 -40q0 -14 10 -22.5t41 -20.5l57 -22q36 -14 61 -28t41 -30.5t23 -37
t7 -48.5q0 -75 -55 -116t-173 -41q-42 0 -91.5 9t-87.5 29v126z" />
    <glyph glyph-name="t" unicode="t" horiz-adv-x="393" 
d="M387 11q-26 -11 -58.5 -17t-65.5 -6q-62 0 -100.5 19.5t-58.5 57.5q-16 28 -21 69.5t-5 92.5v150h-74v122h74l2 129l146 40v-169h137v-122h-137v-151q0 -25 1.5 -44.5t6.5 -33.5q13 -36 65 -36q22 0 46.5 5t41.5 13v-119v0z" />
    <glyph glyph-name="u" unicode="u" horiz-adv-x="630" 
d="M570 226q0 -37 -6 -72.5t-23 -63.5t-41 -47.5t-53.5 -31.5t-63 -17t-68.5 -5q-36 0 -70.5 5t-64.5 16.5t-54 30.5t-40 48q-15 29 -20 64t-5 73v273h151v-279q0 -21 4 -40t12 -33q12 -20 35.5 -29t51.5 -9t51.5 10t35.5 29q8 14 12 33t4 39v279h152v-273z" />
    <glyph glyph-name="v" unicode="v" horiz-adv-x="575" 
d="M214 0l-212 499h164q32 -81 53.5 -136t36 -92.5t23 -62t14.5 -42.5l14 42t22 61.5t35 92.5t53 137h154l-211 -499h-146z" />
    <glyph glyph-name="w" unicode="w" horiz-adv-x="839" 
d="M181 0l-168 499h165q25 -80 41.5 -134.5t27 -91t16.5 -59.5t10 -41q4 18 10 41t16.5 59.5t27 91t42.5 134.5h111q25 -80 42 -133.5t27.5 -90t16.5 -59.5t11 -42q4 19 9.5 42.5t16 59.5t26.5 89.5t41 133.5h155l-172 -499h-136q-24 70 -40.5 120t-27.5 85.5t-18 59.5
t-12 42q-5 -17 -12 -41t-18 -60t-27 -86.5t-40 -119.5h-141z" />
    <glyph glyph-name="x" unicode="x" horiz-adv-x="590" 
d="M10 0l193 256l-181 244h174q26 -36 43 -59.5t28 -39t18.5 -26.5t13.5 -21q6 9 13.5 19.5t19 26.5t28.5 40t44 60h167l-186 -234l197 -266h-171q-28 37 -46.5 62.5t-31.5 43.5t-22 30.5t-17 24.5q-9 -12 -17.5 -24.5t-21.5 -30t-32 -42.5t-47 -64h-166z" />
    <glyph glyph-name="y" unicode="y" horiz-adv-x="579" 
d="M24 -119q23 -8 44 -12t48 -4q20 0 37.5 6.5t29.5 23.5q9 13 17 30t15 35l15 40h-17l-209 499h165q36 -87 59.5 -146t38 -98t22.5 -62t13 -39q4 16 11.5 39.5t21 62.5t34 98t50.5 145h155l-224 -571q-15 -37 -29 -65t-29 -48q-51 -69 -152 -69q-34 0 -59 2.5t-57 11.5v121
z" />
    <glyph glyph-name="z" unicode="z" horiz-adv-x="544" 
d="M30 0v87l252 293q-36 -1 -92 -2.5t-144 -1.5v123h451v-88l-256 -291q32 1 99.5 1.5t167.5 0.5v-122h-478z" />
    <glyph glyph-name="braceleft" unicode="{" horiz-adv-x="349" 
d="M322 -175q-57 2 -99.5 22t-70.5 54t-42 79t-14 97q0 35 -1.5 64t-9 53t-23.5 44t-46 37q29 21 45 42t23.5 44t8.5 50t1 60q0 57 15 105t44.5 83t72 55t96.5 22v-59q-53 0 -82 -50t-29 -156q0 -34 -1.5 -62.5t-7 -52t-17.5 -43t-33 -35.5q22 -17 34 -36.5t18 -44t7.5 -54
t1.5 -66.5q0 -98 29 -145.5t80 -47.5v-59z" />
    <glyph glyph-name="bar" unicode="|" horiz-adv-x="225" 
d="M53 -138v909h119v-909h-119z" />
    <glyph glyph-name="braceright" unicode="}" horiz-adv-x="349" 
d="M27 -116q51 0 80 47.5t29 145.5q0 37 1.5 66.5t7.5 54t18 44t34 36.5q-21 16 -33 35.5t-17.5 43t-7 52t-1.5 62.5q0 106 -29 156t-82 50v59q54 -2 96.5 -22t72 -55t44.5 -83t15 -105q0 -33 1 -60t8.5 -50t23.5 -44t45 -42q-30 -17 -46.5 -37t-24 -44t-8.5 -53t-1 -64
q0 -52 -14 -97t-42 -79t-70.5 -54t-99.5 -22v59z" />
    <glyph glyph-name="asciitilde" unicode="~" horiz-adv-x="559" 
d="M41 208q2 32 11 65.5t26 61t42.5 45t61.5 17.5q14 0 26 -2t24.5 -6t26.5 -9.5t33 -12.5q28 -11 46 -19t41 -8q26 0 41 15.5t25 48.5h73q-3 -27 -11.5 -60t-25.5 -61.5t-44 -48t-66 -19.5q-12 0 -23.5 2t-24.5 5.5t-28.5 9.5t-36.5 15q-29 11 -47.5 19t-38.5 8
q-49 0 -67 -66h-64z" />
    <glyph glyph-name="exclamdown" unicode="&#xa1;" horiz-adv-x="294" 
d="M146 510q33 0 56.5 -24t23.5 -58q0 -33 -23.5 -56.5t-56.5 -23.5t-56 23.5t-23 56.5q0 34 23 58t56 24zM229 -165h-166l36 452h94z" />
    <glyph glyph-name="cent" unicode="&#xa2;" horiz-adv-x="498" 
d="M260 -9q-56 6 -98 26.5t-70.5 54t-42.5 78t-14 97.5q0 56 17 101t47.5 78t71.5 53t89 26v107h85v-104q29 -2 53.5 -8t52.5 -17v-125q-38 14 -71 22.5t-73 8.5q-34 0 -56.5 -13.5t-36 -34t-19 -45t-5.5 -47.5q0 -27 6 -52.5t19.5 -45t35 -31t53.5 -11.5q29 0 70.5 9.5
t82.5 28.5v-121q-55 -29 -112 -35v-110h-85v110z" />
    <glyph glyph-name="sterling" unicode="&#xa3;" horiz-adv-x="622" 
d="M126 290h-66v94h66v78q0 51 19 90.5t51.5 66.5t76 41t92.5 14q65 0 112.5 -10t76.5 -18v-132q-26 8 -66 20t-89 12q-58 0 -88.5 -23.5t-30.5 -71.5v-67h136v-94h-136v-151h288v-139h-442v290z" />
    <glyph glyph-name="currency" unicode="&#xa4;" horiz-adv-x="521" 
d="M44 56l68 68q-36 51 -36 113q0 61 34 111l-68 67l53 53l66 -67q50 36 114 36t113 -35l67 67l52 -53l-69 -68q35 -48 35 -111q0 -65 -36 -114l67 -68l-52 -50l-66 66q-49 -34 -111 -34q-31 0 -60 9t-53 25l-66 -67zM275 113q26 0 48.5 9.5t39 26.5t26 39.5t9.5 48.5
q0 27 -9.5 49.5t-26 39.5t-39 26.5t-48.5 9.5t-49 -9.5t-40 -26.5t-26.5 -39.5t-9.5 -48.5t9.5 -49t26.5 -40t39.5 -26.5t49.5 -9.5z" />
    <glyph glyph-name="yen" unicode="&#xa5;" horiz-adv-x="724" 
d="M285 141h-187v59h186l-15 71h-171v60h129l-218 334h187q25 -40 53.5 -86.5t54.5 -86.5q29 -47 59 -93q29 46 59 93q25 40 54 86.5t54 86.5h186l-217 -334h128v-60h-170l-15 -71h185v-59h-186v-141h-156v141z" />
    <glyph glyph-name="brokenbar" unicode="&#xa6;" horiz-adv-x="225" 
d="M53 387v374h118v-374h-118zM53 -138v374h118v-374h-118z" />
    <glyph glyph-name="section" unicode="&#xa7;" horiz-adv-x="566" 
d="M32 -79q50 -30 107 -50.5t110 -20.5t82.5 16t29.5 54q0 28 -20 44t-67 36l-64 25q-35 14 -65.5 31t-52.5 39.5t-34.5 52t-12.5 67.5q0 45 16 79t45 59q-26 23 -40 53.5t-14 72.5q0 47 17.5 83.5t49.5 61t77 37t99 12.5q72 0 121.5 -13.5t84.5 -28.5v-136q-45 23 -91 37
t-94 14q-40 0 -68.5 -13t-28.5 -46q0 -16 6 -27.5t17.5 -20.5t28.5 -17t38 -17l60 -25q40 -17 71.5 -35t53 -39.5t32.5 -49t11 -63.5q0 -90 -59 -144q26 -23 39.5 -51.5t13.5 -68.5q0 -98 -70 -152.5t-195 -54.5q-72 0 -133 17.5t-101 39.5v142zM337 121q55 13 55 57
q0 29 -19.5 47t-70.5 37q-21 8 -40.5 15t-25.5 9q-25 -6 -40 -19t-15 -34q0 -33 24.5 -50.5t69.5 -36.5q23 -10 39.5 -16t22.5 -9z" />
    <glyph glyph-name="dieresis" unicode="&#xa8;" horiz-adv-x="459" 
d="M120 566q-29 0 -49.5 20.5t-20.5 50.5t20.5 51t49.5 21q30 0 50.5 -21.5t20.5 -50.5q0 -30 -21 -50.5t-50 -20.5zM339 566q-29 0 -49.5 20.5t-20.5 50.5t20 51t50 21q29 0 50 -21.5t21 -50.5q0 -30 -21 -50.5t-50 -20.5z" />
    <glyph glyph-name="copyright" unicode="&#xa9;" horiz-adv-x="805" 
d="M744 332q0 -71 -26.5 -133t-73 -108.5t-108.5 -73.5t-133 -27t-133.5 27t-109 73.5t-73.5 108.5t-27 133t27 133.5t73.5 109t109 73t133.5 26.5t133 -26.5t108.5 -73t73 -109t26.5 -133.5zM672 331q0 57 -21 106t-57.5 85t-85.5 57t-105 21t-105 -21t-85.5 -57t-57.5 -85
t-21 -106q0 -56 21 -104.5t57 -84.5t85 -57t106 -21t106 21t85.5 57t57 84.5t20.5 104.5zM541 157q-63 -32 -133 -32q-54 0 -93 15t-64.5 42t-38 65t-12.5 83q0 52 16.5 91t46 65.5t69 40t86.5 13.5q35 0 61 -6t56 -17v-93q-24 13 -48 20.5t-57 7.5q-30 0 -51.5 -10
t-35.5 -26.5t-20.5 -38.5t-6.5 -46q0 -54 27.5 -86t83.5 -32q25 0 55.5 7.5t58.5 24.5v-88z" />
    <glyph glyph-name="ordfeminine" unicode="&#xaa;" horiz-adv-x="463" 
d="M422 324q-16 -8 -36 -11.5t-35 -3.5q-21 0 -41.5 11.5t-25.5 37.5q-14 -19 -41.5 -34t-69.5 -15q-29 0 -50 9t-35.5 23t-21.5 32.5t-7 38.5q0 30 14 50t40 33q26 14 67 21.5t93 10.5v13q0 20 -7 33q-11 20 -51 20q-23 0 -57.5 -9t-67.5 -25v78q16 7 35 13t38.5 10.5
t38.5 6.5t34 2q60 0 89.5 -16t41.5 -43q8 -19 10 -43.5t2 -47.5v-100q0 -14 4 -19q3 -8 14 -8q5 0 12 1.5t13 3.5v-73zM273 468q-30 -1 -53.5 -5t-38.5 -12q-12 -6 -18 -13.5t-6 -19.5q0 -20 14 -28.5t33 -8.5q21 0 37 9t24 20q5 6 6.5 15.5t1.5 19.5v23z" />
    <glyph glyph-name="guillemotleft" unicode="&#xab;" horiz-adv-x="526" 
d="M22 243l179 224h103l-142 -224l141 -209h-103zM220 243l179 224h103l-142 -224l141 -209h-104z" />
    <glyph glyph-name="logicalnot" unicode="&#xac;" horiz-adv-x="403" 
d="M265 226h-227v102h327v-212h-100v110z" />
    <glyph glyph-name="uni00AD" unicode="&#xad;" horiz-adv-x="377" 
d="M37 296h302v-116h-302v116z" />
    <glyph glyph-name="registered" unicode="&#xae;" horiz-adv-x="805" 
d="M403 -10q-71 0 -133.5 27t-109 73.5t-73.5 108.5t-27 133t27 133.5t73.5 109t109 73t133.5 26.5t133 -26.5t108.5 -73t73 -109t26.5 -133.5t-26.5 -133t-73 -108.5t-108.5 -73.5t-133 -27zM403 64q54 0 102.5 20t85.5 56t59 85t22 106t-21 106t-57.5 85t-85.5 57t-105 21
t-105 -21t-85.5 -57t-57.5 -85t-21 -106q0 -56 21 -104.5t57 -84.5t85 -57t106 -21zM255 538q40 0 73 1q29 1 55 1.5t35 0.5q28 0 48 -4.5t37 -12.5q27 -14 43.5 -41.5t16.5 -60.5q0 -28 -10.5 -53t-29.5 -40q-7 -5 -15 -9t-21 -7q9 -2 15.5 -7t12.5 -11q7 -6 13.5 -17
t8.5 -16l54 -116h-94l-46 100q-13 28 -29 40q-18 14 -46 14h-34v-154h-87v392zM403 363q14 0 25.5 2t20.5 8q10 7 17.5 19.5t7.5 27.5q0 16 -8 28t-21 19q-8 4 -19 5.5t-22 1.5q-10 0 -20.5 -0.5t-19.5 -0.5q-11 -1 -22 -1v-109h61z" />
    <glyph glyph-name="macron" unicode="&#xaf;" horiz-adv-x="419" 
d="M46 669h327v-98h-327v98z" />
    <glyph glyph-name="degree" unicode="&#xb0;" horiz-adv-x="343" 
d="M26 532q0 30 11.5 56t31.5 46t46 31.5t56 11.5t56 -11.5t46 -31.5t31.5 -46t11.5 -56t-11.5 -56t-31.5 -46t-46 -31.5t-56 -11.5t-56 11.5t-46 31.5t-31.5 46t-11.5 56zM110 533q0 -26 18.5 -44.5t44.5 -18.5t44 18.5t18 44.5t-18 44t-44 18t-44.5 -18t-18.5 -44z" />
    <glyph glyph-name="plusminus" unicode="&#xb1;" horiz-adv-x="488" 
d="M48 97h393v-120h-393v120zM186 269h-138v120h138v135h117v-135h138v-120h-138v-139h-117v139z" />
    <glyph glyph-name="uni00B2" unicode="&#xb2;" horiz-adv-x="406" 
d="M177 682q-29 0 -60 -15t-54 -30v92q17 11 52.5 25.5t84.5 14.5q29 0 57 -6.5t49.5 -21t35 -37t13.5 -53.5q0 -32 -15 -58t-35 -43q-1 -2 -5 -5.5t-9 -7.5t-9 -7t-5 -4l-66 -54q24 0 50 1q22 0 49 0.5t53 0.5v-84h-322v46q32 27 59 52q23 21 46.5 41.5t34.5 31.5l4.5 4.5
t10 9.5t10.5 10l6 6q11 11 17.5 23t6.5 26q0 23 -19 32.5t-40 9.5z" />
    <glyph glyph-name="uni00B3" unicode="&#xb3;" horiz-adv-x="374" 
d="M180 384q-58 0 -93.5 12.5t-48.5 19.5v84q7 -4 20.5 -10t29.5 -11.5t33.5 -9.5t33.5 -4q8 0 18 2t19 7t15 14.5t6 24.5q0 25 -22.5 34t-60.5 9v50q43 0 61.5 11t18.5 29q0 14 -6.5 22t-15.5 12.5t-18.5 6t-15.5 1.5q-16 0 -32.5 -4t-31 -10t-25.5 -12t-17 -9v85q5 3 16 8
t27 10t37.5 9t48.5 4q25 0 52 -4.5t49.5 -15.5t36.5 -29.5t14 -46.5q0 -33 -21 -55t-50 -28l3 -1q35 -7 56 -31t21 -57q0 -35 -17 -57.5t-42 -36t-52 -18.5t-47 -5z" />
    <glyph glyph-name="acute" unicode="&#xb4;" horiz-adv-x="359" 
d="M78 605q17 13 37.5 34t40.5 46.5t39.5 55t34.5 59.5l108 -54q-17 -32 -40.5 -62t-49 -54.5t-50.5 -43.5t-44 -30z" />
    <glyph glyph-name="mu" unicode="&#xb5;" horiz-adv-x="636" 
d="M63 499h152v-283q0 -15 2.5 -29.5t7.5 -25.5q11 -26 37 -40t55 -14q30 0 55 14t38 40q5 11 7.5 25.5t2.5 29.5v283h152v-274q0 -31 -4 -61.5t-18 -55.5q-17 -32 -41.5 -54.5t-55 -37t-65 -21t-70.5 -6.5q-29 0 -60 9.5t-53 32.5l6 -223h-148v691z" />
    <glyph glyph-name="paragraph" unicode="&#xb6;" horiz-adv-x="639" 
d="M251 206q-48 0 -89 18t-71 49t-47 73t-17 91q0 36 10 69.5t28 61t43 48.5t55 33q20 8 43 12t52 4h339v-91h-74v-819h-91v819h-90v-819h-91v451z" />
    <glyph glyph-name="periodcentered" unicode="&#xb7;" horiz-adv-x="225" 
d="M111 245q-33 0 -56 23.5t-23 57.5t23 57.5t56 23.5t56.5 -23.5t23.5 -57.5t-23.5 -57.5t-56.5 -23.5z" />
    <glyph glyph-name="cedilla" unicode="&#xb8;" horiz-adv-x="342" 
d="M60 -152q17 -11 37.5 -17.5t40.5 -6.5t33 7.5t13 26.5q0 35 -58 35q-8 0 -19.5 -1.5t-26.5 -3.5l27 121h65l-14 -61q8 2 17.5 2.5t16.5 0.5q44 0 68.5 -23t24.5 -61q0 -54 -36 -81.5t-99 -27.5q-24 0 -45.5 3.5t-44.5 16.5v70z" />
    <glyph glyph-name="uni00B9" unicode="&#xb9;" horiz-adv-x="348" 
d="M56 474h70v165q-4 -8 -15.5 -16t-24.5 -16q-15 -9 -33 -17v96q18 11 36 23q15 11 31.5 25t29.5 31h85v-291h66v-84h-245v84z" />
    <glyph glyph-name="ordmasculine" unicode="&#xba;" horiz-adv-x="516" 
d="M249 309q-88 0 -139 48.5t-51 131.5q0 39 13.5 72t38 57t60 38t80.5 14q90 0 139 -49.5t49 -129.5q0 -39 -13 -72.5t-38 -57.5t-60 -38t-79 -14zM250 395q39 0 59 28t20 66q0 39 -19 68t-60 29q-42 0 -60.5 -28.5t-18.5 -68.5q0 -42 19.5 -68t59.5 -26z" />
    <glyph glyph-name="guillemotright" unicode="&#xbb;" horiz-adv-x="526" 
d="M167 243l-142 224h102l180 -224l-178 -209h-103zM365 243l-142 224h102l180 -224l-178 -209h-103z" />
    <glyph glyph-name="onequarter" unicode="&#xbc;" horiz-adv-x="955" 
d="M652 627h127l-486 -658h-127zM56 304h70v165q-4 -8 -15.5 -16t-24.5 -16q-15 -9 -33 -17v96q18 11 36 23q15 11 31.5 25t29.5 31h85v-291h66v-84h-245v84zM748 64h-206l-1 65l179 247h122q-31 -42 -60 -82t-53 -72.5t-41 -55t-24 -30.5h34q14 0 29 0.5t25 0.5v50l104 138
v-188h40v-73h-40v-63h-108v63z" />
    <glyph glyph-name="onehalf" unicode="&#xbd;" horiz-adv-x="958" 
d="M651 627h127l-486 -658h-127zM56 304h70v165q-4 -8 -15.5 -16t-24.5 -16q-15 -9 -33 -17v96q18 11 36 23q15 11 31.5 25t29.5 31h85v-291h66v-84h-245v84zM733 292q-29 0 -60 -15t-54 -30v92q17 11 52.5 25.5t84.5 14.5q29 0 57 -6.5t49.5 -21t35 -37t13.5 -53.5
q0 -32 -15 -58t-35 -43q-1 -2 -5 -5.5t-8.5 -7l-9 -7t-5.5 -4.5l-66 -54q24 0 50 1q22 0 49 0.5t53 0.5v-84h-322v46q32 27 59 52q23 21 46.5 41.5t34.5 31.5l4.5 4.5t10 9.5t10.5 10l6 6q11 11 17.5 23t6.5 26q0 23 -19 32.5t-40 9.5z" />
    <glyph glyph-name="threequarters" unicode="&#xbe;" horiz-adv-x="959" 
d="M675 627h127l-486 -658h-127zM197 214q-58 0 -93.5 12.5t-48.5 19.5v84q7 -4 20.5 -10t29.5 -11.5t33.5 -9.5t33.5 -4q8 0 18 2t19 7t15 14.5t6 24.5q0 25 -22.5 34t-60.5 9v50q43 0 61.5 11t18.5 29q0 14 -6.5 22t-15.5 12.5t-18.5 6t-15.5 1.5q-16 0 -32.5 -4t-31 -10
t-25.5 -12t-17 -9v85q5 3 16 8t27 10t37.5 9t48.5 4q25 0 52 -4.5t49.5 -15.5t36.5 -29.5t14 -46.5q0 -33 -21 -55t-50 -28l3 -1q35 -7 56 -31t21 -57q0 -35 -17 -57.5t-42 -36t-52 -18.5t-47 -5zM748 64h-206l-1 65l179 247h122q-31 -42 -60 -82t-53 -72.5t-41 -55
t-24 -30.5h34q14 0 29 0.5t25 0.5v50l104 138v-188h40v-73h-40v-63h-108v63z" />
    <glyph glyph-name="questiondown" unicode="&#xbf;" horiz-adv-x="369" 
d="M250 488q33 0 56 -24t23 -58q0 -33 -23 -56.5t-56 -23.5t-56.5 23.5t-23.5 56.5q0 34 23.5 58t56.5 24zM301 264q10 -20 17.5 -45t7.5 -42q0 -28 -12 -49.5t-32 -44.5q-9 -10 -22 -23t-24.5 -28t-19.5 -30t-8 -30q0 -26 14 -36t43 -10q17 0 37.5 5.5t37.5 12.5
q20 8 40 19v-129q-21 -10 -44 -17q-20 -6 -45.5 -11t-54.5 -5q-37 0 -72.5 7.5t-63.5 24t-45.5 44t-17.5 66.5q0 23 9 44t22.5 39.5t29 34.5t29.5 28q18 17 33.5 30t27.5 25.5t18.5 27.5t6.5 35q0 10 -2.5 28.5t-4.5 28.5h95z" />
    <glyph glyph-name="Agrave" unicode="&#xc0;" horiz-adv-x="698" 
d="M523 0l-52 140h-246l-53 -140h-169l263 665h169l260 -665h-172zM429 272q-42 114 -61 168.5t-21 61.5q-2 -5 -20.5 -59.5t-60.5 -170.5h163zM415 715q-21 6 -48 17.5t-56.5 29t-58 39.5t-51.5 48l88 73q43 -50 95 -89t92 -56z" />
    <glyph glyph-name="Aacute" unicode="&#xc1;" horiz-adv-x="698" 
d="M523 0l-52 140h-246l-53 -140h-169l263 665h169l260 -665h-172zM429 272q-42 114 -61 168.5t-21 61.5q-2 -5 -20.5 -59.5t-60.5 -170.5h163zM247 780q19 8 43 22.5t48.5 33.5t49.5 41.5t46 47.5l88 -74q-23 -26 -52 -48t-58 -39t-56.5 -28.5t-48.5 -17.5z" />
    <glyph glyph-name="Acircumflex" unicode="&#xc2;" horiz-adv-x="698" 
d="M523 0l-52 140h-246l-53 -140h-169l263 665h169l260 -665h-172zM429 272q-42 114 -61 168.5t-21 61.5q-2 -5 -20.5 -59.5t-60.5 -170.5h163zM145 768q18 10 40.5 25.5t45 35.5t44.5 44t40 50h62q18 -26 40.5 -50t45 -44t45 -35.5t40.5 -25.5l-65 -56q-26 8 -65.5 32
t-72.5 66q-31 -38 -69.5 -64t-65.5 -34z" />
    <glyph glyph-name="Atilde" unicode="&#xc3;" horiz-adv-x="698" 
d="M523 0l-52 140h-246l-53 -140h-169l263 665h169l260 -665h-172zM429 272q-42 114 -61 168.5t-21 61.5q-2 -5 -20.5 -59.5t-60.5 -170.5h163zM154 711q6 31 15.5 58.5t24.5 48.5t35 33.5t47 12.5q20 0 40 -8.5t40 -19.5q16 -9 32.5 -16.5t27.5 -7.5q17 0 26 15.5t19 47.5
l78 -14q-13 -67 -40 -110t-76 -43q-20 0 -40 8.5t-41 19.5q-17 8 -33.5 16t-27.5 8q-18 0 -28.5 -16.5t-19.5 -48.5z" />
    <glyph glyph-name="Adieresis" unicode="&#xc4;" horiz-adv-x="698" 
d="M523 0l-52 140h-246l-53 -140h-169l263 665h169l260 -665h-172zM429 272q-42 114 -61 168.5t-21 61.5q-2 -5 -20.5 -59.5t-60.5 -170.5h163zM250 709q-29 0 -49.5 20.5t-20.5 50.5t20 51t50 21q29 0 50 -21.5t21 -50.5q0 -30 -21 -50.5t-50 -20.5zM447 709
q-29 0 -49.5 20.5t-20.5 50.5t20.5 51t49.5 21q30 0 50.5 -21.5t20.5 -50.5q0 -30 -21 -50.5t-50 -20.5z" />
    <glyph glyph-name="Aring" unicode="&#xc5;" horiz-adv-x="698" 
d="M523 0l-52 140h-246l-53 -140h-169l263 665h169l260 -665h-172zM429 272q-42 114 -61 168.5t-21 61.5q-2 -5 -20.5 -59.5t-60.5 -170.5h163zM347 710q-48 0 -79.5 31.5t-31.5 78.5t31.5 78.5t79.5 31.5t79.5 -31.5t31.5 -78.5t-31.5 -78.5t-79.5 -31.5zM347 760
q25 0 43 17t18 43t-18 43.5t-43 17.5q-26 0 -42.5 -17.5t-16.5 -43.5t16.5 -43t42.5 -17z" />
    <glyph glyph-name="AE" unicode="&#xc6;" horiz-adv-x="1047" 
d="M535 0v131h-263l-82 -131h-185l426 665h553v-134h-297v-130h265v-129h-265v-138h312v-134h-464zM535 526h-21l-165 -266h186v266z" />
    <glyph glyph-name="Ccedilla" unicode="&#xc7;" horiz-adv-x="654" 
d="M309 -152q17 -11 37.5 -17.5t40.5 -6.5t33 7.5t13 26.5q0 35 -58 35q-8 0 -19.5 -1.5t-26.5 -3.5l22 100q-75 4 -133.5 31t-99 72t-62 106.5t-21.5 135.5q0 82 28 146t76.5 108t114 67t139.5 23q39 0 73.5 -4t63 -10t51 -13t37.5 -13v-142q-13 6 -34.5 14t-48.5 15
t-59.5 11.5t-66.5 4.5q-41 0 -79.5 -11t-68.5 -36t-48 -65t-18 -98q0 -53 16.5 -91.5t45 -64t67.5 -37.5t84 -12q34 0 67.5 5.5t62.5 13t52 16t36 14.5v-137q-35 -17 -89.5 -31t-120.5 -18l-9 -40q8 2 17.5 2.5t16.5 0.5q44 0 68.5 -23t24.5 -61q0 -54 -36 -81.5t-99 -27.5
q-24 0 -45.5 3.5t-44.5 16.5v70z" />
    <glyph glyph-name="Egrave" unicode="&#xc8;" horiz-adv-x="579" 
d="M531 0h-459v665h438v-134h-284v-129h258v-131h-258v-137h305v-134zM375 715q-21 6 -48 17.5t-56.5 29t-58 39.5t-51.5 48l88 73q43 -50 95 -89t92 -56z" />
    <glyph glyph-name="Eacute" unicode="&#xc9;" horiz-adv-x="579" 
d="M531 0h-459v665h438v-134h-284v-129h258v-131h-258v-137h305v-134zM170 780q19 8 43 22.5t48.5 33.5t49.5 41.5t46 47.5l88 -74q-23 -26 -52 -48t-58 -39t-56.5 -28.5t-48.5 -17.5z" />
    <glyph glyph-name="Ecircumflex" unicode="&#xca;" horiz-adv-x="579" 
d="M531 0h-459v665h438v-134h-284v-129h258v-131h-258v-137h305v-134zM93 768q18 10 40.5 25.5t45 35.5t44.5 44t40 50h62q18 -26 40.5 -50t45 -44t45 -35.5t40.5 -25.5l-65 -56q-26 8 -65.5 32t-72.5 66q-31 -38 -69.5 -64t-65.5 -34z" />
    <glyph glyph-name="Edieresis" unicode="&#xcb;" horiz-adv-x="579" 
d="M531 0h-459v665h438v-134h-284v-129h258v-131h-258v-137h305v-134zM198 709q-29 0 -49.5 20.5t-20.5 50.5t20 51t50 21q29 0 50 -21.5t21 -50.5q0 -30 -21 -50.5t-50 -20.5zM395 709q-29 0 -49.5 20.5t-20.5 50.5t20.5 51t49.5 21q30 0 50.5 -21.5t20.5 -50.5
q0 -30 -21 -50.5t-50 -20.5z" />
    <glyph glyph-name="Igrave" unicode="&#xcc;" horiz-adv-x="299" 
d="M71 0v665h157v-665h-157zM205 715q-21 6 -48 17.5t-56.5 29t-58 39.5t-51.5 48l88 73q43 -50 95 -89t92 -56z" />
    <glyph glyph-name="Iacute" unicode="&#xcd;" horiz-adv-x="299" 
d="M71 0v665h157v-665h-157zM53 780q19 8 43 22.5t48.5 33.5t49.5 41.5t46 47.5l88 -74q-23 -26 -52 -48t-58 -39t-56.5 -28.5t-48.5 -17.5z" />
    <glyph glyph-name="Icircumflex" unicode="&#xce;" horiz-adv-x="299" 
d="M71 0v665h157v-665h-157zM-49 768q18 10 40.5 25.5t45 35.5t44.5 44t40 50h62q18 -26 40.5 -50t45 -44t45 -35.5t40.5 -25.5l-65 -56q-26 8 -65.5 32t-72.5 66q-31 -38 -69.5 -64t-65.5 -34z" />
    <glyph glyph-name="Idieresis" unicode="&#xcf;" horiz-adv-x="299" 
d="M71 0v665h157v-665h-157zM54 709q-29 0 -49.5 20.5t-20.5 50.5t20 51t50 21q29 0 50 -21.5t21 -50.5q0 -30 -21 -50.5t-50 -20.5zM251 709q-29 0 -49.5 20.5t-20.5 50.5t20.5 51t49.5 21q30 0 50.5 -21.5t20.5 -50.5q0 -30 -21 -50.5t-50 -20.5z" />
    <glyph glyph-name="Eth" unicode="&#xd0;" horiz-adv-x="733" 
d="M72 271h-72v125h72v269q42 0 84 1q36 1 79 1.5t83 0.5q78 0 147 -15.5t121 -53t82.5 -101t30.5 -158.5q0 -55 -14 -103.5t-39 -88t-59.5 -69.5t-75.5 -48q-31 -14 -80 -22.5t-133 -8.5h-226v271zM325 138q32 0 64.5 4.5t54.5 18.5q42 23 68.5 67t26.5 113
q0 52 -15.5 88.5t-43 58.5t-64.5 32t-80 10q-11 0 -26 -0.5l-30 -1t-29 -1t-22 -0.5v-131h114v-125h-114v-133h96z" />
    <glyph glyph-name="Ntilde" unicode="&#xd1;" horiz-adv-x="734" 
d="M538 0q-100 124 -162.5 202t-96.5 122q-40 52 -59 77v-401h-155v665h135q99 -124 160.5 -202t95.5 -121q40 -52 57 -76v399h154v-665h-129zM175 711q6 31 15.5 58.5t24.5 48.5t35 33.5t47 12.5q20 0 40 -8.5t40 -19.5q16 -9 32.5 -16.5t27.5 -7.5q17 0 26 15.5t19 47.5
l78 -14q-13 -67 -40 -110t-76 -43q-20 0 -40 8.5t-41 19.5q-17 8 -33.5 16t-27.5 8q-18 0 -28.5 -16.5t-19.5 -48.5z" />
    <glyph glyph-name="Ograve" unicode="&#xd2;" horiz-adv-x="766" 
d="M377 -13q-80 0 -143.5 26.5t-107.5 73t-68 109.5t-24 136q0 78 27 142t74.5 109t112.5 69.5t141 24.5q75 0 138 -24t108.5 -68t71.5 -106t26 -139t-25.5 -141.5t-72 -111.5t-112.5 -73.5t-146 -26.5zM385 125q41 0 75.5 14t59 40t38.5 64.5t14 88.5q0 51 -14 90t-39 65.5
t-58.5 39.5t-73.5 13q-42 0 -77.5 -13.5t-61 -40t-39.5 -65.5t-14 -89q0 -49 14 -87.5t39 -65t60 -40.5t77 -14zM461 715q-21 6 -48 17.5t-56.5 29t-58 39.5t-51.5 48l88 73q43 -50 95 -89t92 -56z" />
    <glyph glyph-name="Oacute" unicode="&#xd3;" horiz-adv-x="766" 
d="M377 -13q-80 0 -143.5 26.5t-107.5 73t-68 109.5t-24 136q0 78 27 142t74.5 109t112.5 69.5t141 24.5q75 0 138 -24t108.5 -68t71.5 -106t26 -139t-25.5 -141.5t-72 -111.5t-112.5 -73.5t-146 -26.5zM385 125q41 0 75.5 14t59 40t38.5 64.5t14 88.5q0 51 -14 90t-39 65.5
t-58.5 39.5t-73.5 13q-42 0 -77.5 -13.5t-61 -40t-39.5 -65.5t-14 -89q0 -49 14 -87.5t39 -65t60 -40.5t77 -14zM260 780q19 8 43 22.5t48.5 33.5t49.5 41.5t46 47.5l88 -74q-23 -26 -52 -48t-58 -39t-56.5 -28.5t-48.5 -17.5z" />
    <glyph glyph-name="Ocircumflex" unicode="&#xd4;" horiz-adv-x="766" 
d="M377 -13q-80 0 -143.5 26.5t-107.5 73t-68 109.5t-24 136q0 78 27 142t74.5 109t112.5 69.5t141 24.5q75 0 138 -24t108.5 -68t71.5 -106t26 -139t-25.5 -141.5t-72 -111.5t-112.5 -73.5t-146 -26.5zM385 125q41 0 75.5 14t59 40t38.5 64.5t14 88.5q0 51 -14 90t-39 65.5
t-58.5 39.5t-73.5 13q-42 0 -77.5 -13.5t-61 -40t-39.5 -65.5t-14 -89q0 -49 14 -87.5t39 -65t60 -40.5t77 -14zM187 768q18 10 40.5 25.5t45 35.5t44.5 44t40 50h62q18 -26 40.5 -50t45 -44t45 -35.5t40.5 -25.5l-65 -56q-26 8 -65.5 32t-72.5 66q-31 -38 -69.5 -64
t-65.5 -34z" />
    <glyph glyph-name="Otilde" unicode="&#xd5;" horiz-adv-x="766" 
d="M377 -13q-80 0 -143.5 26.5t-107.5 73t-68 109.5t-24 136q0 78 27 142t74.5 109t112.5 69.5t141 24.5q75 0 138 -24t108.5 -68t71.5 -106t26 -139t-25.5 -141.5t-72 -111.5t-112.5 -73.5t-146 -26.5zM385 125q41 0 75.5 14t59 40t38.5 64.5t14 88.5q0 51 -14 90t-39 65.5
t-58.5 39.5t-73.5 13q-42 0 -77.5 -13.5t-61 -40t-39.5 -65.5t-14 -89q0 -49 14 -87.5t39 -65t60 -40.5t77 -14zM195 711q6 31 15.5 58.5t24.5 48.5t35 33.5t47 12.5q20 0 40 -8.5t40 -19.5q16 -9 32.5 -16.5t27.5 -7.5q17 0 26 15.5t19 47.5l78 -14q-13 -67 -40 -110
t-76 -43q-20 0 -40 8.5t-41 19.5q-17 8 -33.5 16t-27.5 8q-18 0 -28.5 -16.5t-19.5 -48.5z" />
    <glyph glyph-name="Odieresis" unicode="&#xd6;" horiz-adv-x="766" 
d="M377 -13q-80 0 -143.5 26.5t-107.5 73t-68 109.5t-24 136q0 78 27 142t74.5 109t112.5 69.5t141 24.5q75 0 138 -24t108.5 -68t71.5 -106t26 -139t-25.5 -141.5t-72 -111.5t-112.5 -73.5t-146 -26.5zM385 125q41 0 75.5 14t59 40t38.5 64.5t14 88.5q0 51 -14 90t-39 65.5
t-58.5 39.5t-73.5 13q-42 0 -77.5 -13.5t-61 -40t-39.5 -65.5t-14 -89q0 -49 14 -87.5t39 -65t60 -40.5t77 -14zM289 709q-29 0 -49.5 20.5t-20.5 50.5t20 51t50 21q29 0 50 -21.5t21 -50.5q0 -30 -21 -50.5t-50 -20.5zM486 709q-29 0 -49.5 20.5t-20.5 50.5t20.5 51
t49.5 21q30 0 50.5 -21.5t20.5 -50.5q0 -30 -21 -50.5t-50 -20.5z" />
    <glyph glyph-name="multiply" unicode="&#xd7;" horiz-adv-x="481" 
d="M43 134l115 115l-115 114l83 84l115 -113l114 112l82 -84l-113 -113l114 -114l-83 -84l-114 113l-116 -114z" />
    <glyph glyph-name="Oslash" unicode="&#xd8;" horiz-adv-x="760" 
d="M21 28l85 84q-69 90 -69 220q0 78 26.5 141.5t73 108.5t110.5 69.5t138 24.5q124 0 210 -66l75 75l61 -58l-76 -76q32 -42 49.5 -94.5t17.5 -116.5q0 -77 -25 -141.5t-71 -111.5t-110 -73t-143 -26q-63 0 -114.5 17t-92.5 48l-85 -85zM270 161q45 -36 111 -36q39 0 72 14
t57 40t37 64.5t13 88.5q0 28 -7 51t-18 41zM493 503q-23 19 -50.5 28t-59.5 9q-40 0 -73.5 -13.5t-58 -40t-38 -65.5t-13.5 -89q0 -28 6 -52t17 -44z" />
    <glyph glyph-name="Ugrave" unicode="&#xd9;" horiz-adv-x="737" 
d="M677 311q0 -24 -1 -50t-6 -49q-22 -111 -100.5 -168t-200.5 -57q-125 0 -203 57.5t-90 163.5q-2 20 -3.5 46t-1.5 48v363h157v-360q0 -19 1 -37.5t3 -34.5q9 -55 46 -81.5t97 -26.5q57 0 93.5 26t46.5 79q4 17 4.5 36.5t0.5 38.5v360h157v-354zM461 715q-21 6 -48 17.5
t-56.5 29t-58 39.5t-51.5 48l88 73q43 -50 95 -89t92 -56z" />
    <glyph glyph-name="Uacute" unicode="&#xda;" horiz-adv-x="737" 
d="M677 311q0 -24 -1 -50t-6 -49q-22 -111 -100.5 -168t-200.5 -57q-125 0 -203 57.5t-90 163.5q-2 20 -3.5 46t-1.5 48v363h157v-360q0 -19 1 -37.5t3 -34.5q9 -55 46 -81.5t97 -26.5q57 0 93.5 26t46.5 79q4 17 4.5 36.5t0.5 38.5v360h157v-354zM240 780q19 8 43 22.5
t48.5 33.5t49.5 41.5t46 47.5l88 -74q-23 -26 -52 -48t-58 -39t-56.5 -28.5t-48.5 -17.5z" />
    <glyph glyph-name="Ucircumflex" unicode="&#xdb;" horiz-adv-x="737" 
d="M677 311q0 -24 -1 -50t-6 -49q-22 -111 -100.5 -168t-200.5 -57q-125 0 -203 57.5t-90 163.5q-2 20 -3.5 46t-1.5 48v363h157v-360q0 -19 1 -37.5t3 -34.5q9 -55 46 -81.5t97 -26.5q57 0 93.5 26t46.5 79q4 17 4.5 36.5t0.5 38.5v360h157v-354zM174 768q18 10 40.5 25.5
t45 35.5t44.5 44t40 50h62q18 -26 40.5 -50t45 -44t45 -35.5t40.5 -25.5l-65 -56q-26 8 -65.5 32t-72.5 66q-31 -38 -69.5 -64t-65.5 -34z" />
    <glyph glyph-name="Udieresis" unicode="&#xdc;" horiz-adv-x="737" 
d="M677 311q0 -24 -1 -50t-6 -49q-22 -111 -100.5 -168t-200.5 -57q-125 0 -203 57.5t-90 163.5q-2 20 -3.5 46t-1.5 48v363h157v-360q0 -19 1 -37.5t3 -34.5q9 -55 46 -81.5t97 -26.5q57 0 93.5 26t46.5 79q4 17 4.5 36.5t0.5 38.5v360h157v-354zM277 709q-29 0 -49.5 20.5
t-20.5 50.5t20 51t50 21q29 0 50 -21.5t21 -50.5q0 -30 -21 -50.5t-50 -20.5zM474 709q-29 0 -49.5 20.5t-20.5 50.5t20.5 51t49.5 21q30 0 50.5 -21.5t20.5 -50.5q0 -30 -21 -50.5t-50 -20.5z" />
    <glyph glyph-name="Yacute" unicode="&#xdd;" horiz-adv-x="692" 
d="M260 0v247l-260 418h179q42 -71 69.5 -117t45.5 -76t28.5 -48t18.5 -33l164 274h176l-265 -418v-247h-156zM220 780q19 8 43 22.5t48.5 33.5t49.5 41.5t46 47.5l88 -74q-23 -26 -52 -48t-58 -39t-56.5 -28.5t-48.5 -17.5z" />
    <glyph glyph-name="Thorn" unicode="&#xde;" horiz-adv-x="619" 
d="M71 665h157v-112q35 0 67.5 1t45.5 1q51 0 97.5 -10.5t81 -35t55 -64.5t20.5 -99q0 -54 -21 -98.5t-63 -72.5q-28 -20 -70 -32t-88 -12h-125v-131h-157v665zM324 250q23 0 43 4.5t34 15.5q17 12 25 31.5t8 39.5q0 49 -32.5 69.5t-79.5 20.5q-15 0 -31.5 -0.5t-30.5 -1.5
q-17 -1 -32 -1v-178h96z" />
    <glyph glyph-name="germandbls" unicode="&#xdf;" horiz-adv-x="696" 
d="M88 379h-64v120h64v13.5t1 13.5q2 30 8 61t19 54q13 24 34.5 44.5t48.5 35t59 22.5t67 8q54 0 98.5 -16t76 -46t48.5 -72.5t16 -94.5q0 -10 -1 -23.5t-1.5 -27t-1.5 -24.5t-2 -17q-8 2 -21.5 3.5t-21.5 1.5q-38 0 -60.5 -11.5t-22.5 -33.5q0 -35 51 -58l44 -20
q75 -36 107 -75.5t32 -93.5q0 -33 -14 -61.5t-38.5 -49t-59.5 -32.5t-77 -12q-33 0 -58.5 3t-47 8t-40 12.5t-36.5 15.5v126q46 -26 81 -37t66 -11q34 0 52 10t18 36q0 25 -19.5 39.5t-42.5 26.5l-57 30q-47 25 -70.5 55.5t-23.5 81.5q0 38 25 71t76 44q5 2 19 3.5t20 2.5
q1 10 0.5 21t-2.5 19q-5 32 -28.5 54t-68.5 22q-34 0 -57.5 -12.5t-32.5 -31.5q-14 -28 -14 -76v-501h-148v379z" />
    <glyph glyph-name="agrave" unicode="&#xe0;" horiz-adv-x="568" 
d="M558 10q-23 -11 -52.5 -15.5t-50.5 -4.5q-15 0 -30.5 4t-28.5 12t-22.5 21.5t-13.5 33.5q-22 -27 -60 -49t-101 -22q-41 0 -72 12t-51.5 31.5t-31 45.5t-10.5 55q0 87 75 125q39 20 99.5 29.5t135.5 11.5v13q0 14 -2 27t-7 24q-8 16 -28 21.5t-49 5.5q-16 0 -37.5 -3
t-45.5 -9t-48.5 -15t-47.5 -20v120q22 11 49.5 19.5t55.5 14.5t55 9.5t48 3.5q87 0 129.5 -24t58.5 -63q12 -26 15 -61.5t3 -68.5v-149q0 -8 1.5 -16t3.5 -12q6 -10 21 -10q8 0 19 1.5t20 5.5v-104zM241 96q35 0 57.5 13.5t34.5 29.5q6 9 8.5 23.5t2.5 28.5v23
q-45 -1 -80 -4.5t-58 -14.5q-33 -16 -33 -50q0 -29 20 -39t48 -10zM328 556q-20 11 -44.5 30t-49.5 43.5t-48.5 54.5t-40.5 62l107 54q15 -30 34.5 -59.5t40 -55t40.5 -46.5t38 -34z" />
    <glyph glyph-name="aacute" unicode="&#xe1;" horiz-adv-x="568" 
d="M558 10q-23 -11 -52.5 -15.5t-50.5 -4.5q-15 0 -30.5 4t-28.5 12t-22.5 21.5t-13.5 33.5q-22 -27 -60 -49t-101 -22q-41 0 -72 12t-51.5 31.5t-31 45.5t-10.5 55q0 87 75 125q39 20 99.5 29.5t135.5 11.5v13q0 14 -2 27t-7 24q-8 16 -28 21.5t-49 5.5q-16 0 -37.5 -3
t-45.5 -9t-48.5 -15t-47.5 -20v120q22 11 49.5 19.5t55.5 14.5t55 9.5t48 3.5q87 0 129.5 -24t58.5 -63q12 -26 15 -61.5t3 -68.5v-149q0 -8 1.5 -16t3.5 -12q6 -10 21 -10q8 0 19 1.5t20 5.5v-104zM241 96q35 0 57.5 13.5t34.5 29.5q6 9 8.5 23.5t2.5 28.5v23
q-45 -1 -80 -4.5t-58 -14.5q-33 -16 -33 -50q0 -29 20 -39t48 -10zM173 605q17 13 37.5 34t40.5 46.5t39.5 55t34.5 59.5l108 -54q-17 -32 -40.5 -62t-49 -54.5t-50.5 -43.5t-44 -30z" />
    <glyph glyph-name="acircumflex" unicode="&#xe2;" horiz-adv-x="568" 
d="M558 10q-23 -11 -52.5 -15.5t-50.5 -4.5q-15 0 -30.5 4t-28.5 12t-22.5 21.5t-13.5 33.5q-22 -27 -60 -49t-101 -22q-41 0 -72 12t-51.5 31.5t-31 45.5t-10.5 55q0 87 75 125q39 20 99.5 29.5t135.5 11.5v13q0 14 -2 27t-7 24q-8 16 -28 21.5t-49 5.5q-16 0 -37.5 -3
t-45.5 -9t-48.5 -15t-47.5 -20v120q22 11 49.5 19.5t55.5 14.5t55 9.5t48 3.5q87 0 129.5 -24t58.5 -63q12 -26 15 -61.5t3 -68.5v-149q0 -8 1.5 -16t3.5 -12q6 -10 21 -10q8 0 19 1.5t20 5.5v-104zM241 96q35 0 57.5 13.5t34.5 29.5q6 9 8.5 23.5t2.5 28.5v23
q-45 -1 -80 -4.5t-58 -14.5q-33 -16 -33 -50q0 -29 20 -39t48 -10zM88 603q35 31 78.5 77.5t81.5 109.5h77q16 -30 36 -58t41 -52t41 -43.5t36 -33.5l-71 -46q-13 8 -29 20.5t-32.5 28t-33 32.5t-30.5 34q-15 -17 -31 -34t-32.5 -32.5t-32 -28t-28.5 -20.5z" />
    <glyph glyph-name="atilde" unicode="&#xe3;" horiz-adv-x="568" 
d="M558 10q-23 -11 -52.5 -15.5t-50.5 -4.5q-15 0 -30.5 4t-28.5 12t-22.5 21.5t-13.5 33.5q-22 -27 -60 -49t-101 -22q-41 0 -72 12t-51.5 31.5t-31 45.5t-10.5 55q0 87 75 125q39 20 99.5 29.5t135.5 11.5v13q0 14 -2 27t-7 24q-8 16 -28 21.5t-49 5.5q-16 0 -37.5 -3
t-45.5 -9t-48.5 -15t-47.5 -20v120q22 11 49.5 19.5t55.5 14.5t55 9.5t48 3.5q87 0 129.5 -24t58.5 -63q12 -26 15 -61.5t3 -68.5v-149q0 -8 1.5 -16t3.5 -12q6 -10 21 -10q8 0 19 1.5t20 5.5v-104zM241 96q35 0 57.5 13.5t34.5 29.5q6 9 8.5 23.5t2.5 28.5v23
q-45 -1 -80 -4.5t-58 -14.5q-33 -16 -33 -50q0 -29 20 -39t48 -10zM88 582q6 31 15.5 58.5t24.5 48.5t35 33.5t47 12.5q20 0 40 -9t40 -20q16 -8 32.5 -16t27.5 -8q17 0 26 15.5t19 48.5l78 -15q-13 -67 -40 -110t-76 -43q-20 0 -40 8.5t-41 20.5q-17 8 -33.5 16t-27.5 8
q-18 0 -28.5 -16.5t-19.5 -48.5z" />
    <glyph glyph-name="adieresis" unicode="&#xe4;" horiz-adv-x="568" 
d="M558 10q-23 -11 -52.5 -15.5t-50.5 -4.5q-15 0 -30.5 4t-28.5 12t-22.5 21.5t-13.5 33.5q-22 -27 -60 -49t-101 -22q-41 0 -72 12t-51.5 31.5t-31 45.5t-10.5 55q0 87 75 125q39 20 99.5 29.5t135.5 11.5v13q0 14 -2 27t-7 24q-8 16 -28 21.5t-49 5.5q-16 0 -37.5 -3
t-45.5 -9t-48.5 -15t-47.5 -20v120q22 11 49.5 19.5t55.5 14.5t55 9.5t48 3.5q87 0 129.5 -24t58.5 -63q12 -26 15 -61.5t3 -68.5v-149q0 -8 1.5 -16t3.5 -12q6 -10 21 -10q8 0 19 1.5t20 5.5v-104zM241 96q35 0 57.5 13.5t34.5 29.5q6 9 8.5 23.5t2.5 28.5v23
q-45 -1 -80 -4.5t-58 -14.5q-33 -16 -33 -50q0 -29 20 -39t48 -10zM177 566q-29 0 -49.5 20.5t-20.5 50.5t20.5 51t49.5 21q30 0 50.5 -21.5t20.5 -50.5q0 -30 -21 -50.5t-50 -20.5zM396 566q-29 0 -49.5 20.5t-20.5 50.5t20 51t50 21q29 0 50 -21.5t21 -50.5
q0 -30 -21 -50.5t-50 -20.5z" />
    <glyph glyph-name="aring" unicode="&#xe5;" horiz-adv-x="568" 
d="M558 10q-23 -11 -52.5 -15.5t-50.5 -4.5q-15 0 -30.5 4t-28.5 12t-22.5 21.5t-13.5 33.5q-22 -27 -60 -49t-101 -22q-41 0 -72 12t-51.5 31.5t-31 45.5t-10.5 55q0 87 75 125q39 20 99.5 29.5t135.5 11.5v13q0 14 -2 27t-7 24q-8 16 -28 21.5t-49 5.5q-16 0 -37.5 -3
t-45.5 -9t-48.5 -15t-47.5 -20v120q22 11 49.5 19.5t55.5 14.5t55 9.5t48 3.5q87 0 129.5 -24t58.5 -63q12 -26 15 -61.5t3 -68.5v-149q0 -8 1.5 -16t3.5 -12q6 -10 21 -10q8 0 19 1.5t20 5.5v-104zM241 96q35 0 57.5 13.5t34.5 29.5q6 9 8.5 23.5t2.5 28.5v23
q-45 -1 -80 -4.5t-58 -14.5q-33 -16 -33 -50q0 -29 20 -39t48 -10zM285 555q-48 0 -79.5 31.5t-31.5 78.5t31.5 78.5t79.5 31.5t79.5 -31.5t31.5 -78.5t-31.5 -78.5t-79.5 -31.5zM285 605q25 0 43 17t18 43t-18 43.5t-43 17.5q-26 0 -42.5 -17.5t-16.5 -43.5t16.5 -43
t42.5 -17z" />
    <glyph glyph-name="ae" unicode="&#xe6;" horiz-adv-x="882" 
d="M202 -11q-42 0 -73.5 12t-52.5 32t-31.5 46t-10.5 55q0 85 75 125q39 22 99 30t136 10v18q0 24 -9 45q-8 16 -28 22.5t-49 6.5q-16 0 -37.5 -3t-45.5 -9t-48.5 -15t-47.5 -20v120q22 11 49.5 19.5t55.5 14.5t55 9.5t48 3.5q63 0 99.5 -18.5t55.5 -47.5q32 30 75 47.5
t92 17.5q57 0 101.5 -15t76.5 -50q33 -35 47.5 -83t14.5 -108v-19t-1 -18h-356q1 -54 37 -81.5t99 -27.5q35 0 62.5 4t50.5 11t43 16.5t41 20.5v-120q-46 -22 -97.5 -36.5t-119.5 -14.5q-76 0 -128 24.5t-85 70.5q-28 -40 -78.5 -67.5t-114.5 -27.5zM245 96q32 0 63 15
t46 41q-5 17 -7 30.5t-4 32.5q-44 -1 -79 -4.5t-58 -14.5q-33 -16 -33 -51q0 -29 21 -39t51 -10zM708 302q-2 42 -27.5 68.5t-74.5 26.5q-46 0 -77 -25t-36 -70h215z" />
    <glyph glyph-name="ccedilla" unicode="&#xe7;" horiz-adv-x="498" 
d="M208 -152q17 -11 37.5 -17.5t40.5 -6.5t33 7.5t13 26.5q0 35 -58 35q-8 0 -19.5 -1.5t-26.5 -3.5l23 104q-55 6 -95.5 27.5t-67.5 55t-40 78t-13 96.5q0 65 21 114t58 82t87 50t108 17q42 0 74.5 -6.5t67.5 -20.5v-125q-30 14 -58.5 22.5t-66.5 8.5q-36 0 -61.5 -11
t-42.5 -30.5t-25 -45t-8 -54.5q0 -66 34 -103.5t100 -37.5q31 0 67 10t68 30v-121q-35 -19 -69 -27.5t-74 -10.5l-9 -42q8 2 17.5 2.5t16.5 0.5q44 0 68.5 -23t24.5 -61q0 -54 -36 -81.5t-99 -27.5q-24 0 -45.5 3.5t-44.5 16.5v70z" />
    <glyph glyph-name="egrave" unicode="&#xe8;" horiz-adv-x="578" 
d="M523 40q-46 -22 -97.5 -36.5t-119.5 -14.5q-65 0 -115 18t-85 51.5t-53 82t-18 108.5q0 52 16.5 99t50.5 83t85 57.5t119 21.5q117 0 178.5 -63t61.5 -188v-23t-1 -22h-357q2 -47 38.5 -76.5t99.5 -29.5q35 0 62.5 4t50 11t43 16.5t41.5 20.5v-120zM406 303
q0 42 -27 68.5t-75 26.5q-47 0 -77.5 -25t-35.5 -70h215zM332 556q-20 11 -44.5 30t-49.5 43.5t-48.5 54.5t-40.5 62l107 54q15 -30 34.5 -59.5t40 -55t40.5 -46.5t38 -34z" />
    <glyph glyph-name="eacute" unicode="&#xe9;" horiz-adv-x="578" 
d="M523 40q-46 -22 -97.5 -36.5t-119.5 -14.5q-65 0 -115 18t-85 51.5t-53 82t-18 108.5q0 52 16.5 99t50.5 83t85 57.5t119 21.5q117 0 178.5 -63t61.5 -188v-23t-1 -22h-357q2 -47 38.5 -76.5t99.5 -29.5q35 0 62.5 4t50 11t43 16.5t41.5 20.5v-120zM406 303
q0 42 -27 68.5t-75 26.5q-47 0 -77.5 -25t-35.5 -70h215zM197 605q17 13 37.5 34t40.5 46.5t39.5 55t34.5 59.5l108 -54q-17 -32 -40.5 -62t-49 -54.5t-50.5 -43.5t-44 -30z" />
    <glyph glyph-name="ecircumflex" unicode="&#xea;" horiz-adv-x="578" 
d="M523 40q-46 -22 -97.5 -36.5t-119.5 -14.5q-65 0 -115 18t-85 51.5t-53 82t-18 108.5q0 52 16.5 99t50.5 83t85 57.5t119 21.5q117 0 178.5 -63t61.5 -188v-23t-1 -22h-357q2 -47 38.5 -76.5t99.5 -29.5q35 0 62.5 4t50 11t43 16.5t41.5 20.5v-120zM406 303
q0 42 -27 68.5t-75 26.5q-47 0 -77.5 -25t-35.5 -70h215zM111 603q35 31 78.5 77.5t81.5 109.5h77q16 -30 36 -58t41 -52t41 -43.5t36 -33.5l-71 -46q-13 8 -29 20.5t-32.5 28t-33 32.5t-30.5 34q-15 -17 -31 -34t-32.5 -32.5t-32 -28t-28.5 -20.5z" />
    <glyph glyph-name="edieresis" unicode="&#xeb;" horiz-adv-x="578" 
d="M523 40q-46 -22 -97.5 -36.5t-119.5 -14.5q-65 0 -115 18t-85 51.5t-53 82t-18 108.5q0 52 16.5 99t50.5 83t85 57.5t119 21.5q117 0 178.5 -63t61.5 -188v-23t-1 -22h-357q2 -47 38.5 -76.5t99.5 -29.5q35 0 62.5 4t50 11t43 16.5t41.5 20.5v-120zM406 303
q0 42 -27 68.5t-75 26.5q-47 0 -77.5 -25t-35.5 -70h215zM193 566q-29 0 -49.5 20.5t-20.5 50.5t20.5 51t49.5 21q30 0 50.5 -21.5t20.5 -50.5q0 -30 -21 -50.5t-50 -20.5zM412 566q-29 0 -49.5 20.5t-20.5 50.5t20 51t50 21q29 0 50 -21.5t21 -50.5q0 -30 -21 -50.5
t-50 -20.5z" />
    <glyph glyph-name="igrave" unicode="&#xec;" horiz-adv-x="280" 
d="M171 556q-20 11 -44.5 30t-49.5 43.5t-48.5 54.5t-40.5 62l107 54q15 -30 34.5 -59.5t40 -55t40.5 -46.5t38 -34zM67 499h148v-499h-148v499z" />
    <glyph glyph-name="iacute" unicode="&#xed;" horiz-adv-x="280" 
d="M34 605q17 13 37.5 34t40.5 46.5t39.5 55t34.5 59.5l108 -54q-17 -32 -40.5 -62t-49 -54.5t-50.5 -43.5t-44 -30zM67 499h148v-499h-148v499z" />
    <glyph glyph-name="icircumflex" unicode="&#xee;" horiz-adv-x="280" 
d="M67 499h148v-499h-148v499zM-53 603q35 31 78.5 77.5t81.5 109.5h77q16 -30 36 -58t41 -52t41 -43.5t36 -33.5l-71 -46q-13 8 -29 20.5t-32.5 28t-33 32.5t-30.5 34q-15 -17 -31 -34t-32.5 -32.5t-32 -28t-28.5 -20.5z" />
    <glyph glyph-name="idieresis" unicode="&#xef;" horiz-adv-x="280" 
d="M31 566q-29 0 -49.5 20.5t-20.5 50.5t20.5 51t49.5 21q30 0 50.5 -21.5t20.5 -50.5q0 -30 -21 -50.5t-50 -20.5zM250 566q-29 0 -49.5 20.5t-20.5 50.5t20 51t50 21q29 0 50 -21.5t21 -50.5q0 -30 -21 -50.5t-50 -20.5zM67 499h148v-499h-148v499z" />
    <glyph glyph-name="eth" unicode="&#xf0;" horiz-adv-x="606" 
d="M580 280q0 -54 -17 -106.5t-51 -93.5t-85.5 -66t-120.5 -25q-63 0 -113 18t-85.5 52t-54.5 82t-19 107q0 56 18.5 104t54 83.5t86 56t114.5 20.5q34 0 61 -11t45 -30q-3 20 -10 42t-20 44q-6 11 -12.5 20.5t-13.5 19.5l-55 -54l-50 50l57 57q-17 11 -33.5 20t-31.5 16
l38 78q44 -16 91 -49l62 62l49 -50l-55 -55q15 -13 27.5 -26.5t23.5 -26.5q75 -94 93 -221q5 -33 6 -59.5t1 -58.5zM427 254q0 28 -6.5 52.5t-21 43.5t-37 30t-54.5 11t-54.5 -11.5t-37.5 -31t-22 -45t-7 -54.5q0 -63 30.5 -101.5t90.5 -38.5q61 0 90 41t29 104z" />
    <glyph glyph-name="ntilde" unicode="&#xf1;" horiz-adv-x="625" 
d="M67 0v499h149v-77q12 19 31 35t42 27.5t49 18t52 6.5q57 0 93 -19t55 -51q15 -26 19.5 -60t4.5 -60v-319h-150v281q0 23 -3.5 43t-12.5 34q-11 16 -28.5 23t-40.5 7t-47.5 -10.5t-40.5 -32.5q-11 -13 -15.5 -31t-4.5 -41v-273h-152zM118 582q6 31 15.5 58.5t24.5 48.5
t35 33.5t47 12.5q20 0 40 -9t40 -20q16 -8 32.5 -16t27.5 -8q17 0 26 15.5t19 48.5l78 -15q-13 -67 -40 -110t-76 -43q-20 0 -40 8.5t-41 20.5q-17 8 -33.5 16t-27.5 8q-18 0 -28.5 -16.5t-19.5 -48.5z" />
    <glyph glyph-name="ograve" unicode="&#xf2;" horiz-adv-x="614" 
d="M580 251q0 -57 -19 -105t-55 -83t-86.5 -54.5t-113.5 -19.5t-113 18t-85.5 52t-54.5 82t-19 107q0 56 18.5 104t54 83.5t86 56t114.5 20.5q65 0 116 -19.5t86 -54t53 -82.5t18 -105zM427 250q0 28 -6.5 54t-21 45.5t-37 31t-54.5 11.5t-54.5 -11.5t-37.5 -31t-22 -45.5
t-7 -55q0 -63 30.5 -101.5t90.5 -38.5q30 0 52.5 11t37.5 30.5t22 45t7 54.5zM337 556q-20 11 -44.5 30t-49.5 43.5t-48.5 54.5t-40.5 62l107 54q15 -30 34.5 -59.5t40 -55t40.5 -46.5t38 -34z" />
    <glyph glyph-name="oacute" unicode="&#xf3;" horiz-adv-x="614" 
d="M580 251q0 -57 -19 -105t-55 -83t-86.5 -54.5t-113.5 -19.5t-113 18t-85.5 52t-54.5 82t-19 107q0 56 18.5 104t54 83.5t86 56t114.5 20.5q65 0 116 -19.5t86 -54t53 -82.5t18 -105zM427 250q0 28 -6.5 54t-21 45.5t-37 31t-54.5 11.5t-54.5 -11.5t-37.5 -31t-22 -45.5
t-7 -55q0 -63 30.5 -101.5t90.5 -38.5q30 0 52.5 11t37.5 30.5t22 45t7 54.5zM218 605q17 13 37.5 34t40.5 46.5t39.5 55t34.5 59.5l108 -54q-17 -32 -40.5 -62t-49 -54.5t-50.5 -43.5t-44 -30z" />
    <glyph glyph-name="ocircumflex" unicode="&#xf4;" horiz-adv-x="614" 
d="M580 251q0 -57 -19 -105t-55 -83t-86.5 -54.5t-113.5 -19.5t-113 18t-85.5 52t-54.5 82t-19 107q0 56 18.5 104t54 83.5t86 56t114.5 20.5q65 0 116 -19.5t86 -54t53 -82.5t18 -105zM427 250q0 28 -6.5 54t-21 45.5t-37 31t-54.5 11.5t-54.5 -11.5t-37.5 -31t-22 -45.5
t-7 -55q0 -63 30.5 -101.5t90.5 -38.5q30 0 52.5 11t37.5 30.5t22 45t7 54.5zM112 603q35 31 78.5 77.5t81.5 109.5h77q16 -30 36 -58t41 -52t41 -43.5t36 -33.5l-71 -46q-13 8 -29 20.5t-32.5 28t-33 32.5t-30.5 34q-15 -17 -31 -34t-32.5 -32.5t-32 -28t-28.5 -20.5z" />
    <glyph glyph-name="otilde" unicode="&#xf5;" horiz-adv-x="614" 
d="M580 251q0 -57 -19 -105t-55 -83t-86.5 -54.5t-113.5 -19.5t-113 18t-85.5 52t-54.5 82t-19 107q0 56 18.5 104t54 83.5t86 56t114.5 20.5q65 0 116 -19.5t86 -54t53 -82.5t18 -105zM427 250q0 28 -6.5 54t-21 45.5t-37 31t-54.5 11.5t-54.5 -11.5t-37.5 -31t-22 -45.5
t-7 -55q0 -63 30.5 -101.5t90.5 -38.5q30 0 52.5 11t37.5 30.5t22 45t7 54.5zM112 582q6 31 15.5 58.5t24.5 48.5t35 33.5t47 12.5q20 0 40 -9t40 -20q16 -8 32.5 -16t27.5 -8q17 0 26 15.5t19 48.5l78 -15q-13 -67 -40 -110t-76 -43q-20 0 -40 8.5t-41 20.5q-17 8 -33.5 16
t-27.5 8q-18 0 -28.5 -16.5t-19.5 -48.5z" />
    <glyph glyph-name="odieresis" unicode="&#xf6;" horiz-adv-x="614" 
d="M580 251q0 -57 -19 -105t-55 -83t-86.5 -54.5t-113.5 -19.5t-113 18t-85.5 52t-54.5 82t-19 107q0 56 18.5 104t54 83.5t86 56t114.5 20.5q65 0 116 -19.5t86 -54t53 -82.5t18 -105zM427 250q0 28 -6.5 54t-21 45.5t-37 31t-54.5 11.5t-54.5 -11.5t-37.5 -31t-22 -45.5
t-7 -55q0 -63 30.5 -101.5t90.5 -38.5q30 0 52.5 11t37.5 30.5t22 45t7 54.5zM197 566q-29 0 -49.5 20.5t-20.5 50.5t20.5 51t49.5 21q30 0 50.5 -21.5t20.5 -50.5q0 -30 -21 -50.5t-50 -20.5zM416 566q-29 0 -49.5 20.5t-20.5 50.5t20 51t50 21q29 0 50 -21.5t21 -50.5
q0 -30 -21 -50.5t-50 -20.5z" />
    <glyph glyph-name="divide" unicode="&#xf7;" horiz-adv-x="445" 
d="M219 19q-32 0 -54 22.5t-22 54.5q0 33 22 55.5t54 22.5t54.5 -22.5t22.5 -55.5q0 -32 -22.5 -54.5t-54.5 -22.5zM41 342h363v-109h-363v109zM220 407q-32 0 -54 23t-22 55t22 54.5t54 22.5t54.5 -22.5t22.5 -54.5q0 -16 -6 -30.5t-16.5 -25t-24.5 -16.5t-30 -6z" />
    <glyph glyph-name="oslash" unicode="&#xf8;" horiz-adv-x="614" 
d="M26 21l61 61q-53 64 -53 166q0 55 18.5 103.5t54 83.5t86 55.5t114.5 20.5q51 0 92.5 -12t73.5 -33l54 52l50 -48l-51 -51q54 -68 54 -168q0 -56 -19 -104t-54.5 -83t-86 -55t-113.5 -20q-50 0 -92 12t-75 34l-65 -64zM234 134q15 -11 33 -18t41 -7q29 0 51 11.5t37 30.5
t22.5 44.5t7.5 54.5q0 12 -3.5 28.5t-10.5 27.5zM378 367q-14 11 -30.5 17t-39.5 6q-30 0 -52.5 -11.5t-37.5 -30.5t-22.5 -45t-7.5 -54q0 -12 3 -28.5t11 -27.5z" />
    <glyph glyph-name="ugrave" unicode="&#xf9;" horiz-adv-x="630" 
d="M570 226q0 -37 -6 -72.5t-23 -63.5t-41 -47.5t-53.5 -31.5t-63 -17t-68.5 -5q-36 0 -70.5 5t-64.5 16.5t-54 30.5t-40 48q-15 29 -20 64t-5 73v273h151v-279q0 -21 4 -40t12 -33q12 -20 35.5 -29t51.5 -9t51.5 10t35.5 29q8 14 12 33t4 39v279h152v-273zM368 556
q-20 11 -44.5 30t-49.5 43.5t-48.5 54.5t-40.5 62l107 54q15 -30 34.5 -59.5t40 -55t40.5 -46.5t38 -34z" />
    <glyph glyph-name="uacute" unicode="&#xfa;" horiz-adv-x="630" 
d="M570 226q0 -37 -6 -72.5t-23 -63.5t-41 -47.5t-53.5 -31.5t-63 -17t-68.5 -5q-36 0 -70.5 5t-64.5 16.5t-54 30.5t-40 48q-15 29 -20 64t-5 73v273h151v-279q0 -21 4 -40t12 -33q12 -20 35.5 -29t51.5 -9t51.5 10t35.5 29q8 14 12 33t4 39v279h152v-273zM194 605
q17 13 37.5 34t40.5 46.5t39.5 55t34.5 59.5l108 -54q-17 -32 -40.5 -62t-49 -54.5t-50.5 -43.5t-44 -30z" />
    <glyph glyph-name="ucircumflex" unicode="&#xfb;" horiz-adv-x="630" 
d="M570 226q0 -37 -6 -72.5t-23 -63.5t-41 -47.5t-53.5 -31.5t-63 -17t-68.5 -5q-36 0 -70.5 5t-64.5 16.5t-54 30.5t-40 48q-15 29 -20 64t-5 73v273h151v-279q0 -21 4 -40t12 -33q12 -20 35.5 -29t51.5 -9t51.5 10t35.5 29q8 14 12 33t4 39v279h152v-273zM121 603
q35 31 78.5 77.5t81.5 109.5h77q16 -30 36 -58t41 -52t41 -43.5t36 -33.5l-71 -46q-13 8 -29 20.5t-32.5 28t-33 32.5t-30.5 34q-15 -17 -31 -34t-32.5 -32.5t-32 -28t-28.5 -20.5z" />
    <glyph glyph-name="udieresis" unicode="&#xfc;" horiz-adv-x="630" 
d="M570 226q0 -37 -6 -72.5t-23 -63.5t-41 -47.5t-53.5 -31.5t-63 -17t-68.5 -5q-36 0 -70.5 5t-64.5 16.5t-54 30.5t-40 48q-15 29 -20 64t-5 73v273h151v-279q0 -21 4 -40t12 -33q12 -20 35.5 -29t51.5 -9t51.5 10t35.5 29q8 14 12 33t4 39v279h152v-273zM208 566
q-29 0 -49.5 20.5t-20.5 50.5t20.5 51t49.5 21q30 0 50.5 -21.5t20.5 -50.5q0 -30 -21 -50.5t-50 -20.5zM427 566q-29 0 -49.5 20.5t-20.5 50.5t20 51t50 21q29 0 50 -21.5t21 -50.5q0 -30 -21 -50.5t-50 -20.5z" />
    <glyph glyph-name="yacute" unicode="&#xfd;" horiz-adv-x="579" 
d="M24 -119q23 -8 44 -12t48 -4q20 0 37.5 6.5t29.5 23.5q9 13 17 30t15 35l15 40h-17l-209 499h165q36 -87 59.5 -146t38 -98t22.5 -62t13 -39q4 16 11.5 39.5t21 62.5t34 98t50.5 145h155l-224 -571q-15 -37 -29 -65t-29 -48q-51 -69 -152 -69q-34 0 -59 2.5t-57 11.5v121
zM192 605q17 13 37.5 34t40.5 46.5t39.5 55t34.5 59.5l108 -54q-17 -32 -40.5 -62t-49 -54.5t-50.5 -43.5t-44 -30z" />
    <glyph glyph-name="thorn" unicode="&#xfe;" horiz-adv-x="617" 
d="M67 665h147v-238q28 40 73 61t91 21q98 0 149.5 -63.5t51.5 -173.5q0 -77 -23 -130.5t-60.5 -87t-85 -48.5t-97.5 -15q-23 0 -44.5 3t-50.5 9v-246h-151v908zM219 125q14 -7 32.5 -11.5t45.5 -4.5t50 7.5t40.5 24.5t27.5 44.5t10 67.5q0 63 -25.5 98t-78.5 35
q-22 0 -44.5 -10.5t-36.5 -30.5q-10 -11 -15.5 -29.5t-5.5 -39.5v-151z" />
    <glyph glyph-name="ydieresis" unicode="&#xff;" horiz-adv-x="579" 
d="M24 -119q23 -8 44 -12t48 -4q20 0 37.5 6.5t29.5 23.5q9 13 17 30t15 35l15 40h-17l-209 499h165q36 -87 59.5 -146t38 -98t22.5 -62t13 -39q4 16 11.5 39.5t21 62.5t34 98t50.5 145h155l-224 -571q-15 -37 -29 -65t-29 -48q-51 -69 -152 -69q-34 0 -59 2.5t-57 11.5v121
zM188 566q-29 0 -49.5 20.5t-20.5 50.5t20.5 51t49.5 21q30 0 50.5 -21.5t20.5 -50.5q0 -30 -21 -50.5t-50 -20.5zM407 566q-29 0 -49.5 20.5t-20.5 50.5t20 51t50 21q29 0 50 -21.5t21 -50.5q0 -30 -21 -50.5t-50 -20.5z" />
    <glyph glyph-name="dotlessi" unicode="&#x131;" horiz-adv-x="280" 
d="M67 499h148v-499h-148v499z" />
    <glyph glyph-name="OE" unicode="&#x152;" horiz-adv-x="1068" 
d="M588 73q-37 -38 -89.5 -62t-121.5 -24q-80 0 -143.5 26.5t-107.5 73t-68 109.5t-24 136q0 78 27 142t74.5 109t112.5 69.5t141 24.5q60 0 111.5 -20t87.5 -57v65h429v-134h-299v-130h272v-129h-272v-137h315v-135h-445v73zM385 127q83 0 132.5 52t49.5 153
q0 103 -49.5 155.5t-130.5 52.5q-42 0 -77.5 -13.5t-61 -40t-39.5 -65.5t-14 -89q0 -49 14 -87t39 -64.5t60 -40t77 -13.5z" />
    <glyph glyph-name="oe" unicode="&#x153;" horiz-adv-x="969" 
d="M306 -11q-63 0 -113.5 18t-85.5 52t-54 82t-19 107q0 56 18.5 104t54 83.5t86 56t114.5 20.5q66 0 115.5 -22.5t81.5 -60.5q30 38 78 59.5t111 21.5q60 0 107.5 -17.5t79.5 -55.5q29 -35 42.5 -83.5t13.5 -104.5q0 -8 -0.5 -18t-0.5 -17h-358q1 -54 38 -81.5t100 -27.5
q35 0 62.5 4t50 10.5t42.5 16t41 20.5v-116q-46 -22 -97 -36.5t-119 -14.5t-117 22.5t-80 60.5q-32 -38 -81 -60.5t-111 -22.5zM308 109q60 0 89.5 41t29.5 105q0 27 -7 52t-21 43.5t-37 29.5t-54 11q-32 0 -54.5 -11.5t-37.5 -31t-22 -45t-7 -54.5q0 -63 30.5 -101.5
t90.5 -38.5zM794 303q-1 42 -27 68t-74 26q-47 0 -78 -24.5t-36 -69.5h215z" />
    <glyph glyph-name="Scaron" unicode="&#x160;" horiz-adv-x="566" 
d="M39 186q51 -30 107 -48.5t109 -18.5q54 0 83.5 14t29.5 52q0 26 -20.5 42t-67.5 36l-64 26q-35 14 -65 31t-52 39.5t-34 52t-12 68.5q0 95 65 145t178 50q70 0 123.5 -12t88.5 -26v-140q-45 22 -93.5 35t-96.5 13q-44 0 -70.5 -12.5t-26.5 -44.5t22.5 -48.5t64.5 -33.5
l61 -26q42 -18 73.5 -35.5t52.5 -39t31.5 -48.5t10.5 -63q0 -99 -68.5 -152.5t-196.5 -53.5q-72 0 -131.5 15.5t-101.5 36.5v146zM267 712q-18 26 -40 50t-44.5 44t-45 35.5t-40.5 25.5l65 56q27 -8 65.5 -33.5t69.5 -64.5q33 43 72.5 66.5t65.5 31.5l65 -56
q-18 -10 -40.5 -25.5t-45 -35.5t-45 -44t-40.5 -50h-62z" />
    <glyph glyph-name="scaron" unicode="&#x161;" horiz-adv-x="481" 
d="M40 154q46 -25 92 -37.5t88 -12.5q38 0 53.5 11t15.5 33q0 17 -12.5 25t-41.5 18l-60 22q-55 19 -90 53t-35 93q0 73 52 112.5t160 39.5q37 0 81.5 -8t77.5 -20v-122q-81 35 -152 35q-62 0 -62 -40q0 -14 10 -22.5t41 -20.5l57 -22q36 -14 61 -28t41 -30.5t23 -37
t7 -48.5q0 -75 -55 -116t-173 -41q-42 0 -91.5 9t-87.5 29v126zM210 557q-16 30 -35.5 58t-40.5 52t-41.5 43.5t-36.5 33.5l72 46q13 -8 29 -21t32.5 -28.5t32.5 -32.5t30 -33q15 16 31 33t32.5 32.5t32 28.5t28.5 21l72 -46q-35 -31 -79 -77.5t-82 -109.5h-77z" />
    <glyph glyph-name="Ydieresis" unicode="&#x178;" horiz-adv-x="692" 
d="M260 0v247l-260 418h179q42 -71 69.5 -117t45.5 -76t28.5 -48t18.5 -33l164 274h176l-265 -418v-247h-156zM240 709q-29 0 -49.5 20.5t-20.5 50.5t20 51t50 21q29 0 50 -21.5t21 -50.5q0 -30 -21 -50.5t-50 -20.5zM437 709q-29 0 -49.5 20.5t-20.5 50.5t20.5 51t49.5 21
q30 0 50.5 -21.5t20.5 -50.5q0 -30 -21 -50.5t-50 -20.5z" />
    <glyph glyph-name="Zcaron" unicode="&#x17d;" horiz-adv-x="621" 
d="M27 0v101q68 82 119 142.5t87.5 104t62 73.5t43 50.5t29 34.5t22.5 27q-36 -1 -87 -1q-44 -1 -108 -1h-149v134h549v-112q-65 -78 -114 -136.5t-84.5 -101.5t-60.5 -72t-42.5 -49.5t-29.5 -34.5t-22 -25q36 0 88 1q45 0 112.5 0.5t161.5 0.5v-136h-577zM290 712
q-18 26 -40 50t-44.5 44t-45 35.5t-40.5 25.5l65 56q27 -8 65.5 -33.5t69.5 -64.5q33 43 72.5 66.5t65.5 31.5l65 -56q-18 -10 -40.5 -25.5t-45 -35.5t-45 -44t-40.5 -50h-62z" />
    <glyph glyph-name="zcaron" unicode="&#x17e;" horiz-adv-x="544" 
d="M30 0v87l252 293q-36 -1 -92 -2.5t-144 -1.5v123h451v-88l-256 -291q32 1 99.5 1.5t167.5 0.5v-122h-478zM230 557q-16 30 -35.5 58t-40.5 52t-41.5 43.5t-36.5 33.5l72 46q13 -8 29 -21t32.5 -28.5t32.5 -32.5t30 -33q15 16 31 33t32.5 32.5t32 28.5t28.5 21l72 -46
q-35 -31 -79 -77.5t-82 -109.5h-77z" />
    <glyph glyph-name="florin" unicode="&#x192;" horiz-adv-x="297" 
d="M80 379h-91v120h91v52q0 40 4.5 66t20.5 51q22 37 63 56t107 19q42 0 77 -9t59 -20v-119q-9 4 -22 9t-26.5 9t-27.5 6.5t-24 2.5q-31 0 -48.5 -9t-24.5 -24q-10 -23 -10 -59v-31h132v-120h-132v-410q0 -39 -4.5 -69t-20.5 -55q-23 -37 -64 -56t-107 -19q-42 0 -77 9
t-58 19v120q9 -4 21.5 -9t26 -9t27 -6.5t24.5 -2.5q32 0 49 9t24 24q11 25 11 59v396z" />
    <glyph glyph-name="circumflex" unicode="&#x2c6;" horiz-adv-x="521" 
d="M64 603q35 31 78.5 77.5t81.5 109.5h77q16 -30 36 -58t41 -52t41 -43.5t36 -33.5l-71 -46q-13 8 -29 20.5t-32.5 28t-33 32.5t-30.5 34q-15 -17 -31 -34t-32.5 -32.5t-32 -28t-28.5 -20.5z" />
    <glyph glyph-name="tilde" unicode="&#x2dc;" horiz-adv-x="487" 
d="M51 582q6 31 15.5 58.5t24.5 48.5t35 33.5t47 12.5q20 0 40 -9t40 -20q16 -8 32.5 -16t27.5 -8q17 0 26 15.5t19 48.5l78 -15q-13 -67 -40 -110t-76 -43q-20 0 -40 8.5t-41 20.5q-17 8 -33.5 16t-27.5 8q-18 0 -28.5 -16.5t-19.5 -48.5z" />
    <glyph glyph-name="endash" unicode="&#x2013;" horiz-adv-x="413" 
d="M32 322h350v-122h-350v122z" />
    <glyph glyph-name="emdash" unicode="&#x2014;" horiz-adv-x="556" 
d="M32 322h492v-122h-492v122z" />
    <glyph glyph-name="quoteleft" unicode="&#x2018;" horiz-adv-x="224" 
d="M227 681q-14 -22 -28 -52.5t-25.5 -67t-19 -79.5t-7.5 -91l-133 8q0 49 10 95t25.5 86.5t35 73.5t38.5 56z" />
    <glyph glyph-name="quoteright" unicode="&#x2019;" horiz-adv-x="224" 
d="M-4 419q14 22 28.5 52.5t26 67t19 79.5t7.5 91l133 -8q-1 -48 -11 -94.5t-25.5 -87t-35 -74t-38.5 -55.5z" />
    <glyph glyph-name="quotesinglbase" unicode="&#x201a;" horiz-adv-x="225" 
d="M-4 -165q14 22 28.5 52.5t26 67t19 79.5t7.5 91l133 -8q-1 -49 -11 -95t-25.5 -86.5t-35 -74t-38.5 -56.5l-104 30v0z" />
    <glyph glyph-name="quotedblleft" unicode="&#x201c;" horiz-adv-x="425" 
d="M429 681q-14 -22 -28.5 -52.5t-26 -67t-19 -79.5t-7.5 -91l-133 8q1 49 11 95t25.5 86.5t35 73.5t38.5 56zM227 681q-14 -22 -28 -52.5t-25.5 -67t-19 -79.5t-7.5 -91l-133 8q0 49 10 95t25.5 86.5t35 73.5t38.5 56z" />
    <glyph glyph-name="quotedblright" unicode="&#x201d;" horiz-adv-x="425" 
d="M-4 419q14 22 28.5 52.5t26 67t19 79.5t7.5 91l133 -8q-1 -48 -11 -94.5t-25.5 -87t-35 -74t-38.5 -55.5zM198 419q14 22 28 52.5t25.5 67t19 79.5t7.5 91l133 -8q0 -48 -10 -94.5t-25.5 -87t-35 -74t-38.5 -55.5z" />
    <glyph glyph-name="quotedblbase" unicode="&#x201e;" horiz-adv-x="425" 
d="M-4 -165q14 22 28.5 52.5t26 67t19 79.5t7.5 91l133 -8q-1 -49 -11 -95t-25.5 -86.5t-35 -74t-38.5 -56.5zM198 -165q14 22 28 52.5t25.5 67t19 79.5t7.5 91l133 -8q0 -49 -10 -95t-25.5 -86.5t-35 -74t-38.5 -56.5z" />
    <glyph glyph-name="dagger" unicode="&#x2020;" horiz-adv-x="630" 
d="M257 429h-217v121h217v211h118v-211h215v-121h-215v-518h-118v518z" />
    <glyph glyph-name="daggerdbl" unicode="&#x2021;" horiz-adv-x="630" 
d="M257 45h-217v121h217v278h-217v121h217v201h118v-201h215v-121h-215v-278h215v-121h-215v-189h-118v189z" />
    <glyph glyph-name="bullet" unicode="&#x2022;" horiz-adv-x="409" 
d="M67 310q0 28 10.5 53.5t29.5 44.5t43.5 30t53.5 11q28 0 53.5 -11t44 -30t29.5 -44.5t11 -53.5q0 -29 -11 -54.5t-29.5 -44.5t-44 -29.5t-53.5 -10.5q-29 0 -53.5 10.5t-43.5 29.5t-29.5 44.5t-10.5 54.5z" />
    <glyph glyph-name="ellipsis" unicode="&#x2026;" horiz-adv-x="783" 
d="M132 -10q-33 0 -56 24t-23 58q0 33 23 56.5t56 23.5t56.5 -23.5t23.5 -56.5q0 -34 -23.5 -58t-56.5 -24zM391 -10q-33 0 -56 24t-23 58q0 33 23 56.5t56 23.5t56.5 -23.5t23.5 -56.5q0 -34 -23.5 -58t-56.5 -24zM650 -10q-33 0 -56 24t-23 58q0 33 23 56.5t56 23.5
t56.5 -23.5t23.5 -56.5q0 -34 -23.5 -58t-56.5 -24z" />
    <glyph glyph-name="perthousand" unicode="&#x2030;" horiz-adv-x="1353" 
d="M655 627h127l-486 -658h-127zM264 405q0 47 -14 79t-51 32q-36 0 -51.5 -32t-15.5 -79t15 -79.5t51 -32.5q37 0 51.5 32.5t14.5 79.5zM371 406q0 -41 -11 -76.5t-33 -61.5t-54.5 -40.5t-75.5 -14.5t-75 14.5t-53.5 40.5t-32.5 61.5t-11 76.5t12.5 76.5t35 61t54.5 40
t71 14.5q43 0 75.5 -14.5t54 -40t32.5 -61t11 -76.5zM815 185q0 47 -14 79t-51 32q-36 0 -51.5 -32t-15.5 -79t15 -79.5t51 -32.5q37 0 51.5 32.5t14.5 79.5zM922 186q0 -41 -11 -76.5t-33 -61.5t-54.5 -40.5t-75.5 -14.5t-75 14.5t-53.5 40.5t-32.5 61.5t-11 76.5
t12.5 76.5t35 61t54.5 40t71 14.5q43 0 75.5 -14.5t54 -40t32.5 -61t11 -76.5zM1216 185q0 47 -14 79t-51 32q-36 0 -51.5 -32t-15.5 -79t15 -79.5t51 -32.5q37 0 51.5 32.5t14.5 79.5zM1323 186q0 -41 -11 -76.5t-33 -61.5t-54.5 -40.5t-75.5 -14.5t-75 14.5t-53.5 40.5
t-32.5 61.5t-11 76.5t12.5 76.5t35 61t54.5 40t71 14.5q43 0 75.5 -14.5t54 -40t32.5 -61t11 -76.5z" />
    <glyph glyph-name="guilsinglleft" unicode="&#x2039;" horiz-adv-x="328" 
d="M22 243l179 224h103l-142 -224l141 -209h-104z" />
    <glyph glyph-name="guilsinglright" unicode="&#x203a;" horiz-adv-x="328" 
d="M166 243l-142 224h102l180 -224l-177 -209h-104z" />
    <glyph glyph-name="Euro" unicode="&#x20ac;" horiz-adv-x="852" 
d="M97 312h477l-59 -60h-100q16 -63 62 -95t109 -32q34 0 68 8t64 19t53.5 22.5t35.5 18.5v-143q-39 -26 -96 -44.5t-133 -18.5q-68 0 -124 19.5t-98 54.5t-69.5 83.5t-38.5 107.5h-210zM199 416h50q13 61 44.5 109.5t76.5 81.5t101.5 50.5t118.5 17.5q77 0 126.5 -17
t78.5 -34v-145q-13 7 -34 17t-48 19.5t-59 16t-66 6.5q-57 0 -104.5 -30t-66.5 -92h261l-59 -60h-479z" />
    <glyph glyph-name="trademark" unicode="&#x2122;" horiz-adv-x="932" 
d="M158 571h-108v94h407l164 -197l164 197h89v-430h-105v254q-1 -1 -7.5 -9.5t-21.5 -27.5t-40 -50t-64 -77h-29q-39 45 -64 75.5t-40 49.5t-21.5 27.5t-7.5 10.5v-253h-106v336h-104v-336h-106v336z" />
    </font>
</defs>
</svg>
